<svg width="82" height="38" viewBox="0 0 82 38" fill="none" xmlns="http://www.w3.org/2000/svg">
<path d="M6.22444 17.4248C6.19565 17.2973 6.18331 17.2151 6.16275 17.0917C6.01469 16.2732 6.04347 16.2033 6.02291 15.4424C6.0188 15.3314 6.00235 15.2327 6.06815 15.1381C6.11339 15.3232 6.43008 15.792 6.60694 16.0059C7.70918 17.3508 9.15691 18.3256 10.8308 18.6628L12.2374 18.7985C15.8979 18.7327 18.197 16.154 21.0472 13.8137C22.9062 12.2879 25.1025 10.943 27.2412 10.3096C27.8334 10.1327 28.1501 10.071 28.73 9.98467C29.3922 9.88184 30.0297 9.89007 30.696 9.95588L31.1731 10.0217C32.6331 10.289 33.3899 10.9389 34.6402 11.8067C35.2448 12.2303 36.2895 12.218 36.6514 12.8349L36.3224 12.6416C36.3183 12.6416 36.5979 12.8184 36.5938 12.8184C36.1455 12.6416 36.125 12.7855 35.4875 12.5634C35.0597 12.4154 34.6649 12.3125 34.2372 12.218C33.431 12.0452 32.4851 12.1192 31.6625 12.1398C30.7947 12.1604 29.968 12.2509 29.0549 12.6004C27.4427 13.2174 26.4638 14.1181 25.1436 15.1916C25.0161 15.2944 24.9955 15.3437 24.8886 15.4383C24.7981 15.5165 24.683 15.5946 24.5925 15.681L24.0578 16.191C23.6959 16.4953 22.9926 17.211 22.7088 17.4372L21.8986 18.1734C21.7793 18.2721 21.7711 18.3173 21.6436 18.4201L21.0883 18.9096C20.8827 19.0768 20.6784 19.2441 20.4755 19.4114L19.9203 19.9049C19.7969 20.0036 19.7434 20.0118 19.6077 20.1229C19.509 20.2051 19.4103 20.286 19.3116 20.3655L18.7234 20.8138C17.4649 21.7845 15.6388 22.8785 14.0841 23.1335C12.4637 23.4008 11.1229 23.1088 9.75739 22.278C9.10756 21.8832 8.33845 21.2663 7.73386 20.53C7.00589 19.6417 6.4671 18.4983 6.22444 17.4248V17.4248Z" fill="#FF2E17"/>
<path d="M6.22444 17.0547C6.19565 16.9231 6.18331 16.8449 6.16275 16.7174C6.01469 15.9031 6.04347 15.8332 6.02291 15.0723C6.0188 14.9612 6.00235 14.8584 6.06815 14.7638C6.11339 14.953 6.43008 15.4219 6.60694 15.6357C7.70918 16.9765 9.15691 17.9554 10.8308 18.2927L12.2374 18.4284C15.8979 18.3626 18.197 15.7797 21.0472 13.4436C22.9062 11.9136 25.1025 10.5728 27.2412 9.93531C27.8334 9.75846 28.1501 9.70088 28.73 9.6104C29.3922 9.51169 30.0297 9.51991 30.696 9.58572L31.1731 9.64741C32.6331 9.91475 33.6572 10.3425 34.9075 11.2103C35.5121 11.6339 36.1208 12.1521 36.6884 12.8472L36.6103 12.8267C36.6062 12.8225 36.5979 12.8184 36.5938 12.8184C36.1455 12.6416 36.0921 12.5799 35.4546 12.3578C35.0268 12.2097 34.632 12.1028 34.2042 12.0123C33.3981 11.8396 32.4851 11.7491 31.6625 11.7696C30.7947 11.7902 29.968 11.8807 29.0549 12.2303C27.4427 12.8431 26.4638 13.7438 25.1436 14.8173C25.0161 14.9242 24.9955 14.9695 24.8886 15.0641C24.7981 15.1463 24.683 15.2245 24.5925 15.3067L24.0578 15.8167C23.6959 16.1211 22.9926 16.8367 22.7088 17.067L21.8986 17.8032C21.7793 17.9019 21.7711 17.9431 21.6436 18.05L21.0883 18.5394C20.8827 18.7067 20.6784 18.8739 20.4755 19.0412L19.9203 19.5306C19.7969 19.6293 19.7434 19.6417 19.6077 19.7527C19.509 19.8322 19.4103 19.9131 19.3116 19.9954L18.7234 20.4396C17.4649 21.4143 15.6388 22.5042 14.0841 22.7633C12.4637 23.0307 11.1229 22.7345 9.75739 21.9079C9.10756 21.5089 8.33845 20.892 7.73386 20.1558C7.00589 19.2715 6.4671 18.124 6.22444 17.0547V17.0547Z" fill="#00B9F2"/>
<path d="M8.98004 15.7961C8.32198 15.3766 8.33432 15.2697 7.90658 14.8543C7.74207 14.698 7.74618 14.6487 7.594 14.4677C6.6028 13.2832 6.37248 10.9759 6.6974 9.52403C6.87425 8.73847 7.08812 8.15444 7.47062 7.45937C7.59812 7.22494 7.77908 6.9576 7.93948 6.73139C8.29319 6.23374 8.73738 5.78132 9.31318 5.31245C9.33374 5.37415 9.32963 5.37826 9.28028 5.48108L8.95125 6.24607C8.91423 6.34067 8.8731 6.45172 8.8402 6.54631C8.76206 6.76018 8.69625 6.94526 8.63045 7.16736C8.56464 7.37711 8.50295 7.56219 8.44537 7.77195C8.28085 8.40122 8.25206 8.61097 8.14101 9.19911C8.0711 9.57338 8.05876 9.88596 8.01763 10.2767C7.93126 11.1486 8.04231 11.9917 8.23972 12.8431C8.28496 13.0364 8.37134 13.2996 8.45359 13.5053C8.9019 14.6692 9.30495 15.2327 10.1152 16.1169C10.2262 16.2362 10.3578 16.3267 10.4689 16.4624C10.1769 16.4789 9.27617 15.9853 8.98004 15.7961V15.7961Z" fill="#00B9F2"/>
<path d="M35.2573 20.6329C35.3848 20.6205 35.4918 20.674 35.6193 20.7192C36.2609 20.9496 36.7544 21.2539 37.2891 21.6899C38.2926 22.5083 38.8561 23.7134 39.07 24.8773C39.1769 25.4778 39.1892 26.0742 39.1399 26.6706L39.0329 27.5548C39.0124 27.6535 38.9918 27.7358 38.9671 27.8386L38.6957 28.7064L38.3091 29.5413C37.9348 30.2529 37.3014 31.0549 36.4994 31.7129L36.4953 31.717C36.4542 31.7499 36.4624 31.7294 36.3966 31.7623C36.4007 31.7253 36.3925 31.7623 36.4089 31.7047L36.4583 31.5937C36.9642 30.4791 37.3425 29.311 37.5605 28.1059L37.7333 26.5513C37.7415 25.5395 37.688 24.7128 37.3302 23.7134C36.9395 22.6153 36.557 22.0847 35.8249 21.1922C35.6028 20.9249 35.356 20.748 35.2573 20.6329V20.6329Z" fill="#00AB4F"/>
<path d="M27.7594 33.2306C27.5168 33.2676 27.3152 33.2881 27.0726 33.3087C26.5955 33.3498 25.4685 33.3169 25.0449 33.1894C25.1148 33.1524 25.2711 33.136 25.3616 33.1195L26.2788 32.8933C26.7065 32.7576 27.0726 32.6178 27.5085 32.4244C29.1537 31.7088 31.0415 30.1336 32.3247 28.8339L34.7266 26.2346C34.7307 26.3539 34.4552 26.8433 34.3811 26.979C33.4228 28.7105 32.1561 30.7464 30.5973 32.0255C29.7048 32.7576 28.5984 33.1072 27.7594 33.2306Z" fill="#00AB4F"/>
<path d="M12.6452 7.95291C13.6529 6.47639 14.9196 4.82713 16.6511 4.19375C17.2722 3.96343 18.066 3.79892 18.7158 3.77424C19.0407 3.75779 20.4597 3.74545 20.6818 3.90585L20.0895 4.01278C19.8839 4.06214 19.6864 4.12383 19.489 4.1773C19.0901 4.28835 18.6911 4.46109 18.2798 4.63383C15.8491 5.66616 13.1264 8.41355 11.4278 10.3589L11.0001 10.8607C10.9877 10.5728 12.5218 8.12976 12.6452 7.95291Z" fill="#00B9F2"/>
<path d="M9.39186 9.35951C9.41654 9.07572 9.41242 8.81661 9.49057 8.47524C9.69621 7.57864 9.86484 6.99461 10.2227 6.1597C10.5064 5.49342 11.0535 4.51455 11.765 3.90174C11.8801 3.80303 11.913 3.72488 12.0652 3.62206C12.1557 3.56037 12.2667 3.47811 12.3778 3.40408C12.8179 3.11207 13.8502 2.65143 14.2286 2.76247C14.1299 2.84062 14.1258 2.81183 14.0188 2.8982C12.5176 4.13206 11.6457 5.32479 10.782 6.95348C10.5393 7.41001 10.3214 7.93646 10.1445 8.42589L9.86484 9.40886C9.70444 10.0628 9.74968 10.3219 9.73323 10.9101C9.41654 10.5234 9.35073 9.82837 9.39186 9.35951V9.35951Z" fill="#00B9F2"/>
<path d="M34.9117 30.1994C35.2448 29.5331 35.3312 29.3562 35.5738 28.69C36.1332 27.1394 35.981 26.2839 36.0139 26.1688C36.38 26.6335 36.3717 27.5713 36.3265 28.0237C36.2936 28.3445 36.2401 28.6077 36.1784 28.9244C36.0797 29.4015 35.7219 30.4462 35.5245 30.8986C34.924 32.2599 33.9534 33.5596 32.5098 34.1148C32.3617 34.1724 31.6831 34.411 31.5186 34.3122L31.8969 34.0408C33.2624 32.918 34.303 31.4086 34.9117 30.1994Z" fill="#00AB4F"/>
<path d="M14.5161 1.59031C15.9598 0.594994 16.5767 0.961039 18.0491 1.26539C18.5509 1.36821 18.1684 1.35587 18.4686 1.53684C18.8881 1.78361 19.0321 1.44636 19.3858 2.05506C20.1014 3.28892 19.6367 3.21489 19.7066 3.98399C19.7806 4.84358 19.5914 5.64148 19.9698 6.353C20.4099 6.353 20.7595 6.4147 21.2818 6.4147C22.4745 6.4147 23.951 6.40647 24.9875 6.71493C25.5098 6.86711 25.9376 7.10154 26.3406 7.42235C26.4105 7.47993 26.6244 7.66501 26.6902 7.69791C26.937 7.83775 27.5416 7.83363 27.85 7.91178C28.2079 8.00226 28.4834 8.15032 28.6603 8.41766C30.0998 8.08041 31.9506 8.8454 33.0199 9.31015C33.5669 9.54458 34.1098 9.76668 34.6897 9.95587C35.8084 10.326 36.4254 10.3548 37.6058 10.3548C38.4078 10.3548 39.1069 9.60216 39.1069 10.2931C39.1069 10.9388 38.7574 10.5358 39.1645 11.235C40.0694 12.7773 39.8966 12.6046 39.1686 12.5429C39.1686 13.2174 39.473 13.5012 38.9178 13.7932C38.5846 13.2955 38.7327 13.1351 38.4818 13.0446C38.3049 13.4066 38.5641 13.5299 38.1692 13.7932C37.6304 13.6492 37.9266 13.1392 37.7291 12.7321C37.4824 12.913 37.6962 13.6698 37.2932 13.6698C36.6516 13.6698 37.1945 11.9794 36.413 12.1727C36.2691 12.2097 36.4665 12.1604 36.2896 12.2179C35.3807 12.5305 34.7473 11.7655 33.8548 11.7326C33.4147 11.7121 33.1104 11.6997 32.6662 11.6668C31.2637 11.5558 29.7378 11.5311 28.4382 11.0129C27.9241 10.8072 28.0721 11.1692 27.5992 11.1692L26.6491 11.054C26.2666 10.9964 26.2131 11.0334 25.8471 11.0417C25.8635 11.2596 25.9211 11.346 25.9746 11.5434C26.0116 11.6956 26.0568 11.9259 26.0815 12.0617C26.1884 12.6909 26.2378 13.46 26.6779 13.9001C27.3318 14.5499 27.4305 13.8672 27.7554 15.2615C27.8336 15.5987 28.105 15.6728 28.3354 15.8743C28.6644 16.1581 28.9646 16.4419 29.2114 16.8079L30.3095 18.7163C30.5974 19.2962 30.8524 19.7527 31.2144 20.2463C31.564 20.7192 32.1027 21.0195 32.3125 21.587C32.3824 21.768 32.4277 21.9202 32.4564 22.0683C32.5223 22.3973 32.4112 22.2574 32.6127 22.4754C33.6985 23.6723 34.1633 24.7498 34.8337 26.321C35.0928 26.9297 35.463 27.3821 35.5575 28.036C35.6439 28.6077 36.084 29.1424 36.3349 29.64C36.8449 30.6477 36.5241 30.8945 36.7133 31.6965C37.0916 33.3005 39.8061 33.7981 39.983 35.4227V35.76C39.9665 35.9163 39.9295 36.0808 39.8678 36.2576C39.8061 36.4221 39.7115 36.5538 39.584 36.6607C38.8602 37.2653 38.1404 37.072 37.4659 36.5126C36.6557 35.8422 36.0799 34.9744 35.1463 34.4562C34.5129 34.1025 34.772 33.0907 34.3813 32.6548C34.0687 32.3093 33.8343 32.1612 33.5669 31.717C33.1186 30.9849 32.913 30.0801 32.4153 29.4303C31.0128 27.6042 28.9276 26.5513 27.2372 25.0377C26.7437 24.5936 26.8177 24.8198 26.4352 24.5894C26.1679 24.4331 25.9746 24.1535 25.8101 23.9026C24.9422 22.57 24.6338 23.3145 23.5069 23.59C23.2477 23.6517 23.0503 23.7093 22.8447 23.7998C22.6802 23.8738 22.4457 24.1165 22.2812 24.1165C22.0098 24.1165 21.9111 24.0877 21.8453 23.7998C21.5162 23.808 21.5286 23.9026 21.1214 23.8409C20.8623 23.7998 20.6772 23.8203 20.414 23.7915C19.7395 23.7216 18.9704 23.6311 18.2547 23.7751C17.4445 23.9355 17.8147 24.2152 17.9627 25.7452C18.2712 29.0067 17.8434 28.4432 17.8434 29.4303L18.0738 30.4462C18.1231 30.8369 18.1272 31.1412 18.1807 31.532C18.411 33.1977 18.5179 32.7823 18.8717 33.2799C19.2418 33.7981 19.0238 34.7112 18.9745 35.3775C18.9457 35.76 18.8017 35.9204 18.4398 36.0314C17.9257 36.1918 17.8722 36.0602 17.4034 36.0602C16.4286 36.0602 15.2606 37.0596 12.7147 37.0596C11.8921 37.0596 12.069 36.0561 12.3939 35.8052C13.2699 35.1225 14.2982 34.6001 15.1084 33.8269C16.0872 32.8851 15.9968 32.4738 15.676 31.096C15.5567 30.5613 15.4251 30.113 15.2688 29.6236C14.8328 28.2499 14.1501 26.761 14.0884 25.2393C14.0761 24.8773 14.0103 24.7416 14.0226 24.3632C14.0349 24.0301 14.0925 23.8944 14.0884 23.4913L14.1501 21.6734C14.1542 21.2991 14.22 21.184 14.3886 20.9742C14.9644 20.2668 16.4122 19.6046 17.2389 19.1934C18.0409 18.7903 19.0074 18.4572 19.7806 18.0459C19.6079 17.3056 19.3158 17.6757 18.6825 17.4577C18.4521 17.3796 18.3905 17.2356 18.2342 17.0958C17.7776 16.6845 17.2718 16.4007 16.7412 16.084C16.589 15.9894 15.8035 15.4836 15.7171 15.4836C14.8411 15.4836 14.7465 16.2486 14.3393 16.8614C13.8786 17.5564 13.8128 17.8238 13.5167 18.6011C13.2329 19.3661 12.9491 19.3949 12.7435 19.765C12.6736 19.8884 12.6324 20.09 12.579 20.2298C12.3733 20.7933 12.0608 21.3937 11.74 21.8873C11.2258 22.6687 10.6583 23.3268 10.0701 24.0342C9.49433 24.7169 8.80337 25.3092 8.24813 26.0248C8.03015 26.3045 7.84919 26.3703 7.73403 26.7651L7.33508 27.6165C7.41322 27.7769 7.41322 27.8345 7.51193 28.0031C7.90265 28.6653 7.4708 28.6077 7.09653 29.0067C6.92379 29.1917 6.80863 29.4179 6.65645 29.6277C6.11767 30.3598 5.89557 30.1583 5.62412 30.7217C5.12236 31.7705 4.51776 32.4944 3.20576 32.4944C1.98013 32.4944 1.58529 32.2764 0.877881 31.5731C-0.902989 29.8128 0.0799864 26.4896 3.33326 26.4896C4.66583 26.4896 4.55889 27.6576 5.84211 26.0618C6.40557 25.3668 6.78395 24.6182 7.24459 23.8368C7.73402 23.0142 7.90265 22.9278 8.14531 21.986C8.33039 21.2868 8.62652 20.6617 8.98022 20.0694C9.6753 18.9013 10.2675 18.523 10.5884 18.0459C10.502 17.6798 10.3745 17.7415 10.6459 17.359C11.0901 16.7421 11.1477 16.0511 11.378 15.2738C11.707 14.1633 12.797 11.3995 13.3645 10.5687C13.5578 10.2808 15.4909 8.38064 15.7171 8.22847C15.6102 7.78017 15.495 7.59509 15.1248 7.38122C14.3311 6.91235 14.3598 6.01986 13.7964 5.2014C13.5743 4.8806 13.7141 5.0739 13.7141 4.72842C13.7141 3.96343 13.4015 3.52335 13.4015 2.84884C13.4015 2.31006 14.1172 1.86176 14.5161 1.59031V1.59031Z" fill="#2C2E35"/>
<path d="M20.6361 26.7446C18.9992 27.2628 16.8523 27.6124 15.1043 27.452C14.401 27.3862 13.7142 27.2998 13.0232 27.0901C12.394 26.8968 11.814 26.65 11.2012 26.2675C10.5144 25.8356 10.4033 25.9714 9.88922 25.4655C9.7864 25.3627 9.71648 25.2928 9.67535 25.2393L9.66301 25.2228C9.56842 25.1077 9.60543 25.1036 9.55196 25.0172C9.54785 25.009 9.54785 25.0049 9.54785 24.9966C10.0044 25.3503 11.1642 25.3709 11.8017 25.4737C13.1014 25.6876 14.4298 25.5148 15.6842 25.12C16.733 24.791 17.897 24.1411 18.8553 23.5283C19.2542 23.2733 20.6608 22.3027 21.0022 22.0189C21.1448 21.9037 21.286 21.7886 21.4258 21.6734C21.5944 21.5336 21.6931 21.4925 21.8453 21.365C23.4699 20.0201 24.9834 18.6464 26.5751 17.3426L27.7802 16.3514C27.9241 16.2321 27.9899 16.2157 28.1339 16.0964L29.5364 15.0928C30.8854 14.2086 32.6704 14.04 34.1346 14.5664L35.0887 14.953C35.936 15.3355 37.0465 16.1745 37.7744 17.0629C38.5723 18.0335 38.8931 19.0001 39.1564 20.1558C39.181 20.2751 39.2016 20.3573 39.2181 20.4725C39.2797 20.8961 39.4895 22.0025 39.3661 22.4096C39.2674 22.2862 38.9631 21.7845 38.7204 21.4925C37.9719 20.5794 37.248 20.0118 36.4419 19.5718C34.5952 18.56 32.2673 18.6793 30.4289 19.6622C29.5693 20.1188 29.1786 20.4766 28.4423 21.0812C28.2244 21.258 26.7931 22.5659 26.5628 22.8209C26.4188 22.9772 26.2502 23.1088 26.0898 23.2569C25.9664 23.3803 25.7772 23.5859 25.6374 23.7011C25.2919 23.989 25.0204 24.2769 24.6379 24.5936C23.3588 25.6423 21.8535 26.358 20.6361 26.7446V26.7446Z" fill="#FF2E17"/>
<path d="M34.5415 8.22848C34.5415 9.34718 36.2278 9.33073 36.2278 8.22848C36.2278 7.16737 34.5415 7.11801 34.5415 8.22848Z" fill="#2C2E35"/>
<path d="M20.6361 27.0448C18.9992 27.5589 16.8523 27.9126 15.1043 27.7522C14.401 27.6864 13.7142 27.6001 13.0232 27.3903C12.394 27.197 11.814 26.9502 11.2012 26.5636C10.5144 26.1359 10.4033 25.9714 9.88922 25.4655C9.7864 25.3627 9.71648 25.2927 9.67535 25.2393L9.66301 25.2228C9.56842 25.1077 9.60543 25.1036 9.55196 25.0172C9.54785 25.009 9.54785 25.0048 9.54785 24.9966C10.0044 25.3503 11.1642 25.6711 11.8017 25.7739C13.1014 25.9878 14.4298 25.8151 15.6842 25.4202C16.733 25.0871 17.897 24.4414 18.8553 23.8286C19.2542 23.5736 20.6608 22.5988 21.0022 22.3191C21.1448 22.204 21.286 22.0875 21.4258 21.9695C21.5944 21.8338 21.6931 21.7886 21.8453 21.6652C23.4699 20.3203 24.9834 18.9466 26.5751 17.6387L27.7802 16.6516C27.9241 16.5323 27.994 16.5159 28.1339 16.3966L29.5364 15.3931C30.8854 14.5088 32.6704 14.3402 34.1346 14.8666L35.0887 15.2532C35.936 15.6357 37.0465 16.4748 37.7744 17.3631C38.5723 18.3338 38.8931 19.3003 39.1564 20.4519C39.181 20.5712 39.2016 20.6575 39.2181 20.7727C39.2797 21.1963 39.4895 22.3027 39.3661 22.7099C39.2674 22.5865 38.9631 22.0847 38.7204 21.7886C37.9719 20.8796 37.248 20.3121 36.4419 19.8679C34.5952 18.8602 32.2673 18.9795 30.4289 19.9584C29.5693 20.419 29.1786 20.7768 28.4423 21.3814C28.2244 21.5583 26.7931 22.8662 26.5628 23.117C26.4188 23.2774 26.2502 23.4049 26.0898 23.5571C25.9664 23.6805 25.7772 23.8861 25.6374 24.0013C25.2919 24.2892 25.0204 24.5771 24.6379 24.8897C23.3588 25.9426 21.8535 26.6582 20.6361 27.0448V27.0448Z" fill="#00AB4F"/>
<path fill-rule="evenodd" clip-rule="evenodd" d="M43.6846 18.4447C43.1472 18.4447 42.7291 18.2953 42.4302 17.9964C42.1286 17.7003 41.9778 17.2753 41.9778 16.7214V14.6115H42.8497V16.6885C42.8497 17.3658 43.1294 17.7044 43.6887 17.7044C43.9629 17.7044 44.1713 17.6221 44.3139 17.4576C44.4592 17.2931 44.5319 17.0367 44.5319 16.6885V14.6115H45.3914V16.7214C45.3914 17.2753 45.242 17.7003 44.9431 17.9964C44.6415 18.2953 44.222 18.4447 43.6846 18.4447V18.4447ZM49.3028 17.6715V18.3789H46.0084V17.8154L48.0771 15.323H46.0536V14.6115H49.2246V15.1791L47.1641 17.6715H49.3028ZM52.626 16.4212C52.8426 16.4897 53.0112 16.6035 53.1319 16.7625C53.2552 16.9216 53.3169 17.1176 53.3169 17.3507C53.3169 17.6824 53.1881 17.9374 52.9303 18.1157C52.6753 18.2911 52.3011 18.3789 51.8075 18.3789H49.8621V14.6115H51.7006C52.1612 14.6115 52.5136 14.6992 52.7576 14.8747C53.0044 15.053 53.1277 15.2929 53.1277 15.5945C53.1277 15.7754 53.0839 15.9386 52.9961 16.0839C52.9084 16.2265 52.785 16.3389 52.626 16.4212V16.4212ZM50.7258 15.2696V16.1579H51.5936C51.8103 16.1579 51.9734 16.1196 52.0831 16.0428C52.1955 15.9688 52.2517 15.8577 52.2517 15.7096C52.2517 15.5643 52.1955 15.4546 52.0831 15.3806C51.9734 15.3066 51.8103 15.2696 51.5936 15.2696H50.7258ZM51.7417 17.7249C51.972 17.7249 52.1461 17.6866 52.264 17.6098C52.3792 17.5358 52.4368 17.4192 52.4368 17.2602C52.4368 16.9476 52.2051 16.7913 51.7417 16.7913H50.7258V17.7249H51.7417ZM56.891 17.6797V18.3789H53.975V14.6115H56.8211V15.3107H54.8428V16.1292H56.5908V16.8078H54.8428V17.6797H56.891ZM58.9557 16.9024L58.4498 17.4288V18.3789H57.5861V14.6115H58.4498V16.3718L60.1196 14.6115H61.0902L59.5274 16.2937L61.1807 18.3789H60.1607L58.9557 16.9024ZM61.5673 14.6156H62.4393V18.383H61.5673V14.6156ZM64.5697 18.4488C64.2736 18.4488 63.9857 18.409 63.706 18.3295C63.4291 18.2473 63.2056 18.1417 63.0356 18.0128L63.3318 17.3548C63.4935 17.4754 63.6855 17.5714 63.9076 17.6427C64.1324 17.714 64.3559 17.7496 64.578 17.7496C64.8247 17.7496 65.0071 17.7126 65.125 17.6386C65.2429 17.5645 65.3018 17.4672 65.3018 17.3466C65.3018 17.2561 65.2675 17.1807 65.199 17.1204C65.1277 17.0628 65.0372 17.0162 64.9275 16.9805C64.8179 16.9449 64.6698 16.9051 64.4834 16.8612C64.1982 16.7927 63.9638 16.7241 63.7801 16.6556C63.5964 16.5871 63.4387 16.4774 63.3071 16.3266C63.1782 16.1758 63.1138 15.9756 63.1138 15.7261C63.1138 15.5067 63.1727 15.3079 63.2906 15.1297C63.4085 14.9515 63.5868 14.8117 63.8253 14.7102C64.0638 14.606 64.3559 14.5539 64.7013 14.5539C64.9399 14.5539 65.1743 14.5813 65.4046 14.6362C65.635 14.6938 65.8365 14.7774 66.0092 14.8871L65.7378 15.5492C65.3896 15.3518 65.0413 15.2531 64.6931 15.2531C64.4491 15.2531 64.2695 15.2915 64.1543 15.3683C64.0364 15.4478 63.9775 15.552 63.9775 15.6809C63.9775 15.8097 64.0447 15.9057 64.179 15.9688C64.3161 16.0318 64.5217 16.0949 64.7959 16.1579C65.0838 16.2237 65.3196 16.2909 65.5033 16.3595C65.6843 16.428 65.8406 16.5363 65.9722 16.6844C66.1038 16.8297 66.1696 17.0285 66.1696 17.2808C66.1696 17.4974 66.1093 17.6934 65.9887 17.8689C65.868 18.0471 65.6884 18.1883 65.4499 18.2925C65.2086 18.3967 64.9152 18.4488 64.5697 18.4488V18.4488ZM67.494 15.3271H66.2889V14.6156H69.571V15.3271H68.3659V18.383H67.494V15.3271ZM72.3307 17.5769H70.5827L70.2496 18.3871H69.3571L71.0351 14.6197H71.8947L73.581 18.3871H72.668L72.3307 17.5769ZM72.0551 16.9147L71.4588 15.4711L70.8583 16.9147H72.0551ZM77.4265 14.6156V18.383H76.7109L74.8354 16.0962V18.383H73.9717V14.6156H74.6915L76.5669 16.9024V14.6156H77.4265ZM42.7798 21.4471H41.5747V20.7397H44.8568V21.4471H43.6517V24.5071H42.7798V21.4471ZM47.6206 23.6968H45.8685L45.5354 24.5029H44.6429L46.321 20.7356H47.1847L48.8668 24.5029H47.9538L47.6206 23.6968ZM47.3451 23.0346L46.7487 21.591L46.1523 23.0346H47.3451ZM52.0255 22.5452C52.2421 22.6138 52.4107 22.7276 52.5314 22.8866C52.6548 23.0456 52.7165 23.2417 52.7165 23.4747C52.7165 23.8065 52.5876 24.0615 52.3298 24.2397C52.0721 24.4152 51.6978 24.5029 51.207 24.5029H49.2575V20.7356H51.1001C51.558 20.7356 51.9103 20.8233 52.1571 20.9988C52.4039 21.177 52.5273 21.4156 52.5273 21.7144C52.5273 21.8981 52.4834 22.0626 52.3957 22.208C52.3079 22.3505 52.1845 22.463 52.0255 22.5452V22.5452ZM50.1254 21.3936V22.282H50.9932C51.207 22.282 51.3702 22.2436 51.4826 22.1668C51.5923 22.0928 51.6471 21.9818 51.6471 21.8337C51.6471 21.6884 51.5923 21.5787 51.4826 21.5047C51.3702 21.4306 51.207 21.3936 50.9932 21.3936H50.1254ZM51.1412 23.849C51.3716 23.849 51.5443 23.8106 51.6595 23.7338C51.7774 23.6598 51.8363 23.5433 51.8363 23.3842C51.8363 23.0717 51.6046 22.9154 51.1412 22.9154H50.1254V23.849H51.1412ZM53.3745 20.7356H54.2464V23.7955H56.1342V24.5029H53.3745V20.7356ZM59.5438 23.8038V24.5029H56.6237V20.7356H59.4739V21.4347H57.4915V22.2532H59.2395V22.9318H57.4915V23.8038H59.5438ZM62.5421 21.4471H61.337V20.7356H64.6191V21.4471H63.414V24.5029H62.5421V21.4471ZM68.004 23.8079V24.5071H65.0879V20.7397H67.9341V21.4389H65.9558V22.2573H67.7037V22.9359H65.9558V23.8079H68.004ZM72.1538 20.7397V24.5071H71.4341L69.5586 22.2203V24.5071H68.6949V20.7397H69.4188L71.2901 23.0264V20.7397H72.1538ZM76.5053 20.7397V24.5071H75.7855L73.91 22.2203V24.5071H73.0463V20.7397H73.7702L75.6416 23.0264V20.7397H76.5053ZM77.3977 20.7397H78.2697V24.5071H77.3977V20.7397ZM80.4043 24.5687C80.1054 24.5687 79.8175 24.529 79.5406 24.4495C79.2609 24.37 79.0374 24.2644 78.8702 24.1328L79.1663 23.4788C79.3253 23.5967 79.5172 23.6913 79.7421 23.7626C79.9642 23.8339 80.1863 23.8696 80.4084 23.8696C80.6551 23.8696 80.8375 23.8325 80.9554 23.7585C81.076 23.6872 81.1363 23.5899 81.1363 23.4665C81.1363 23.376 81.1007 23.302 81.0294 23.2444C80.9609 23.1841 80.8717 23.1361 80.7621 23.1005C80.6524 23.0648 80.5043 23.0251 80.3179 22.9812C80.03 22.9154 79.7942 22.8482 79.6105 22.7797C79.4268 22.7111 79.2705 22.6014 79.1416 22.4506C79.01 22.2998 78.9442 22.0983 78.9442 21.846C78.9442 21.6267 79.0031 21.4293 79.121 21.2538C79.2389 21.0756 79.4172 20.9343 79.6557 20.8302C79.8943 20.726 80.1863 20.6739 80.5317 20.6739C80.773 20.6739 81.0075 20.7027 81.235 20.7602C81.4654 20.8178 81.6669 20.9001 81.8396 21.007L81.5723 21.6692C81.2241 21.4718 80.8759 21.3731 80.5276 21.3731C80.2836 21.3731 80.1026 21.4128 79.9847 21.4923C79.8696 21.5718 79.812 21.676 79.812 21.8049C79.812 21.9338 79.8792 22.0297 80.0135 22.0928C80.1479 22.1559 80.3535 22.2176 80.6305 22.2779C80.9156 22.3464 81.15 22.415 81.3338 22.4835C81.5175 22.5521 81.6738 22.659 81.8026 22.8043C81.9342 22.9524 82 23.1512 82 23.4007C82 23.6173 81.9397 23.8147 81.8191 23.9929C81.7012 24.1712 81.5216 24.311 81.2803 24.4125C81.039 24.5167 80.747 24.5687 80.4043 24.5687ZM42.8744 27.5629V28.5582H44.6182V29.2574H42.8744V30.6311H42.0024V26.8637H44.8486V27.5629H42.8744ZM48.3568 29.9278V30.6311H45.4408V26.8637H48.2869V27.5629H46.3086V28.3814H48.0566V29.0559H46.3086V29.9278H48.3568ZM49.0478 26.8637H50.7628C51.1714 26.8637 51.532 26.9405 51.8445 27.094C52.1598 27.2503 52.4039 27.4711 52.5766 27.7562C52.7521 28.0386 52.8398 28.369 52.8398 28.7474C52.8398 29.1231 52.7521 29.4521 52.5766 29.7345C52.4039 30.0197 52.1598 30.2404 51.8445 30.3967C51.532 30.553 51.1714 30.6311 50.7628 30.6311H49.0478V26.8637ZM50.7176 29.9155C51.096 29.9155 51.3962 29.8099 51.6183 29.5988C51.8432 29.3877 51.9556 29.1039 51.9556 28.7474C51.9556 28.3882 51.8432 28.1031 51.6183 27.8919C51.3962 27.6836 51.096 27.5794 50.7176 27.5794H49.9197V29.9155H50.7176ZM56.4139 29.9278V30.6311H53.4979V26.8637H56.344V27.5629H54.3616V28.3814H56.1137V29.0559H54.3616V29.9278H56.4139ZM59.5109 30.6311L58.7829 29.5782H57.9809V30.6311H57.109V26.8637H58.7418C59.0736 26.8637 59.3628 26.9186 59.6096 27.0282C59.8564 27.1407 60.0456 27.2983 60.1772 27.5012C60.3115 27.7069 60.3787 27.9495 60.3787 28.2292C60.3787 28.5089 60.3115 28.7502 60.1772 28.9531C60.0401 29.156 59.8482 29.3109 59.6014 29.4178L60.4486 30.6311H59.5109ZM59.4944 28.2292C59.4944 28.0181 59.4259 27.8563 59.2888 27.7439C59.1517 27.6287 58.9529 27.5711 58.6924 27.5711H57.9809V28.8873H58.6924C58.9529 28.8873 59.1517 28.8297 59.2888 28.7145C59.4259 28.5994 59.4944 28.4376 59.4944 28.2292ZM63.5456 29.8209H61.7977L61.4645 30.6311H60.5679L62.2501 26.8637H63.1097L64.7959 30.6311H63.8788L63.5456 29.8209ZM63.2701 29.1587L62.6737 27.7151L62.0773 29.1587H63.2701ZM65.7789 27.5711H64.5738V26.8596H67.8559V27.5711H66.6508V30.627H65.7789V27.5711ZM68.3248 26.8596H69.1967V30.627H68.3248V26.8596ZM71.9153 30.6928C71.5232 30.6928 71.1695 30.6078 70.8542 30.4378C70.5416 30.2705 70.2962 30.0389 70.118 29.7427C69.9398 29.4466 69.8506 29.1135 69.8506 28.7433C69.8506 28.3731 69.9398 28.04 70.118 27.7439C70.2962 27.4505 70.5416 27.2188 70.8542 27.0488C71.1695 26.8815 71.5232 26.7979 71.9153 26.7979C72.3046 26.7979 72.6556 26.8815 72.9682 27.0488C73.2808 27.2188 73.5262 27.4505 73.7044 27.7439C73.8854 28.04 73.9758 28.3731 73.9758 28.7433C73.9758 29.1135 73.8854 29.4466 73.7044 29.7427C73.5262 30.0389 73.2808 30.2705 72.9682 30.4378C72.6556 30.6078 72.3046 30.6928 71.9153 30.6928ZM71.9153 29.9484C72.1374 29.9484 72.3376 29.8976 72.5158 29.7962C72.6967 29.6947 72.838 29.5522 72.9394 29.3685C73.0409 29.1848 73.0916 28.9764 73.0916 28.7433C73.0916 28.5102 73.0409 28.3019 72.9394 28.1181C72.838 27.9372 72.6967 27.7946 72.5158 27.6904C72.3376 27.589 72.1374 27.5382 71.9153 27.5382C71.6905 27.5382 71.4889 27.589 71.3107 27.6904C71.1325 27.7946 70.9913 27.9372 70.8871 28.1181C70.7856 28.3019 70.7349 28.5102 70.7349 28.7433C70.7349 28.9764 70.7856 29.1848 70.8871 29.3685C70.9913 29.5522 71.1325 29.6947 71.3107 29.7962C71.4889 29.8976 71.6905 29.9484 71.9153 29.9484ZM78.0887 26.8596V30.627H77.3731L75.4935 28.3402V30.627H74.6298V26.8596H75.3537L77.225 29.1464V26.8596H78.0887Z" fill="#2C2E35"/>
</svg>
