<svg width="1248" height="319" viewBox="0 0 1248 319" fill="none" xmlns="http://www.w3.org/2000/svg">
<path d="M309.5 219.5L309.439 218.502L309.5 219.5ZM452.5 43.5001L452.98 44.3773L452.5 43.5001ZM537 43.5001L536.563 44.3993L537 43.5001ZM685.5 219.5L685.802 218.547L685.5 219.5ZM754 223.5L754.094 224.496L754 223.5ZM935.5 43.5001L935.117 42.5763L935.5 43.5001ZM1009.5 43.5001L1010.01 42.6426L1009.5 43.5001ZM1135.69 204.95C1136.21 205.122 1136.78 204.836 1136.95 204.312L1139.75 195.76C1139.93 195.235 1139.64 194.67 1139.12 194.498C1138.59 194.326 1138.03 194.612 1137.85 195.136L1135.36 202.738L1127.76 200.246C1127.23 200.074 1126.67 200.36 1126.5 200.885C1126.33 201.409 1126.61 201.974 1127.14 202.146L1135.69 204.95ZM67 133C66.1408 133.512 66.1408 133.512 66.1408 133.512C66.1409 133.512 66.1409 133.512 66.141 133.512C66.141 133.512 66.1411 133.512 66.1413 133.512C66.1415 133.513 66.1418 133.513 66.1422 133.514C66.1429 133.515 66.1439 133.517 66.1452 133.519C66.1478 133.523 66.1515 133.53 66.1563 133.537C66.1658 133.553 66.1797 133.576 66.1981 133.607C66.2347 133.667 66.289 133.756 66.361 133.871C66.5049 134.103 66.7195 134.443 67.0056 134.884C67.5778 135.766 68.4359 137.048 69.5854 138.662L71.2145 137.502C70.0825 135.912 69.2405 134.654 68.6832 133.795C68.4045 133.366 68.1969 133.037 68.0598 132.816C67.9913 132.706 67.9404 132.622 67.9069 132.567C67.8902 132.54 67.8779 132.52 67.87 132.506C67.866 132.5 67.8631 132.495 67.8613 132.492C67.8604 132.491 67.8598 132.489 67.8595 132.489C67.8593 132.489 67.8592 132.488 67.8592 132.488C67.8591 132.488 67.8591 132.488 67.8591 132.488C67.8592 132.488 67.8592 132.488 67.8592 132.488C67.8592 132.488 67.8592 132.488 67 133ZM77.1891 148.462C79.5581 151.292 82.317 154.412 85.4742 157.718L86.9207 156.337C83.7955 153.064 81.0656 149.977 78.7228 147.178L77.1891 148.462ZM94.2893 166.395C97.1733 169.064 100.287 171.79 103.633 174.53L104.9 172.983C101.586 170.27 98.5034 167.57 95.6479 164.927L94.2893 166.395ZM113.46 182.087C116.71 184.433 120.136 186.76 123.739 189.038L124.808 187.348C121.241 185.092 117.849 182.789 114.63 180.466L113.46 182.087ZM134.385 195.322C137.922 197.265 141.604 199.149 145.432 200.953L146.284 199.144C142.495 197.358 138.85 195.493 135.348 193.569L134.385 195.322ZM156.788 205.88C160.551 207.376 164.439 208.789 168.451 210.104L169.074 208.203C165.101 206.902 161.252 205.503 157.526 204.022L156.788 205.88ZM180.314 213.592C184.234 214.616 188.261 215.544 192.396 216.364L192.785 214.402C188.689 213.59 184.701 212.671 180.819 211.657L180.314 213.592ZM204.628 218.416C208.63 218.968 212.725 219.419 216.913 219.758L217.074 217.764C212.924 217.428 208.867 216.982 204.902 216.435L204.628 218.416ZM229.265 220.418C231.322 220.472 233.401 220.5 235.5 220.5V218.5C233.418 218.5 231.357 218.473 229.317 218.419L229.265 220.418ZM235.5 220.5C237.654 220.5 239.705 220.509 241.668 220.525L241.683 218.525C239.716 218.509 237.659 218.5 235.5 218.5V220.5ZM253.983 220.722C258.428 220.828 262.441 220.955 266.311 221.07L266.37 219.07C262.506 218.956 258.483 218.829 254.03 218.723L253.983 220.722ZM278.66 221.349C282.54 221.393 286.57 221.385 291.031 221.29L290.988 219.291C286.552 219.385 282.544 219.393 278.683 219.349L278.66 221.349ZM303.384 220.841C305.35 220.743 307.404 220.63 309.561 220.498L309.439 218.502C307.29 218.633 305.242 218.746 303.284 218.844L303.384 220.841ZM309.561 220.498C311.598 220.374 313.585 220.152 315.524 219.836L315.202 217.862C313.331 218.167 311.411 218.382 309.439 218.502L309.561 220.498ZM327.051 216.674C330.777 215.208 334.3 213.361 337.644 211.18L336.552 209.505C333.313 211.616 329.911 213.399 326.319 214.813L327.051 216.674ZM347.017 203.83C349.873 201.193 352.591 198.3 355.194 195.192L353.66 193.908C351.105 196.959 348.445 199.789 345.66 202.361L347.017 203.83ZM362.344 185.75C364.539 182.569 366.657 179.238 368.714 175.787L366.996 174.763C364.958 178.182 362.864 181.474 360.698 184.614L362.344 185.75ZM374.516 165.486C376.346 162.065 378.137 158.563 379.902 155.003L378.111 154.115C376.352 157.66 374.57 161.143 372.752 164.543L374.516 165.486ZM385.035 144.39C386.707 140.861 388.367 137.3 390.027 133.73L388.214 132.886C386.554 136.456 384.896 140.012 383.228 143.533L385.035 144.39ZM394.995 123.067C396.662 119.511 398.341 115.966 400.044 112.453L398.245 111.581C396.536 115.104 394.853 118.657 393.184 122.218L394.995 123.067ZM405.284 101.944C407.09 98.436 408.934 94.985 410.828 91.6131L409.084 90.6338C407.176 94.0303 405.321 97.5029 403.506 101.028L405.284 101.944ZM416.811 81.5358C418.923 78.1876 421.103 74.9534 423.367 71.8589L421.753 70.678C419.458 73.8143 417.252 77.0871 415.119 80.4689L416.811 81.5358ZM430.66 62.7507C433.272 59.7907 435.994 57.0208 438.844 54.4714L437.511 52.9807C434.596 55.588 431.819 58.4148 429.16 61.4275L430.66 62.7507ZM448.014 47.371C449.63 46.3047 451.284 45.3054 452.98 44.3773L452.02 42.6229C450.274 43.5783 448.573 44.6061 446.913 45.7018L448.014 47.371ZM452.98 44.3773C454.612 43.4839 456.234 42.6463 457.847 41.8635L456.973 40.0643C455.33 40.8618 453.68 41.7144 452.02 42.6229L452.98 44.3773ZM467.923 37.6391C471.45 36.398 474.944 35.4213 478.42 34.6996L478.014 32.7414C474.447 33.482 470.867 34.4831 467.259 35.7525L467.923 37.6391ZM489.212 33.2651C492.836 33.053 496.46 33.1106 500.099 33.4285L500.273 31.436C496.539 31.1099 492.818 31.0506 489.095 31.2685L489.212 33.2651ZM510.873 35.1062C514.343 35.8772 517.844 36.8708 521.388 38.0799L522.034 36.187C518.425 34.9561 514.854 33.942 511.307 33.1538L510.873 35.1062ZM531.584 42.0859C533.232 42.8146 534.891 43.586 536.563 44.3993L537.437 42.6009C535.745 41.7775 534.064 40.9959 532.393 40.2569L531.584 42.0859ZM536.563 44.3993C538.294 45.2419 539.982 46.1797 541.629 47.2074L542.688 45.5106C540.984 44.4474 539.235 43.4753 537.437 42.6009L536.563 44.3993ZM550.868 54.2353C553.674 56.769 556.363 59.5764 558.962 62.6204L560.483 61.3218C557.837 58.2218 555.087 55.3507 552.209 52.751L550.868 54.2353ZM566.116 71.8668C568.32 74.9804 570.467 78.2543 572.576 81.6605L574.276 80.6079C572.15 77.1732 569.98 73.8641 567.749 70.7112L566.116 71.8668ZM578.552 91.804C580.448 95.1632 582.325 98.6102 584.197 102.123L585.962 101.182C584.084 97.6596 582.2 94.1979 580.294 90.821L578.552 91.804ZM589.675 112.567C590.573 114.297 591.472 116.036 592.375 117.783C593.279 119.53 594.186 121.284 595.098 123.043L596.873 122.122C595.962 120.365 595.055 118.612 594.152 116.865C593.249 115.118 592.349 113.377 591.451 111.646L589.675 112.567ZM600.582 133.504C602.426 136.973 604.303 140.441 606.225 143.888L607.972 142.914C606.058 139.481 604.188 136.026 602.348 132.565L600.582 133.504ZM612.131 154.137C614.159 157.531 616.244 160.886 618.399 164.18L620.073 163.086C617.935 159.817 615.864 156.485 613.847 153.111L612.131 154.137ZM625.13 173.93C627.474 177.135 629.902 180.259 632.428 183.281L633.963 181.999C631.467 179.013 629.065 175.923 626.744 172.749L625.13 173.93ZM640.382 192.093C643.16 194.93 646.051 197.64 649.07 200.203L650.364 198.678C647.396 196.158 644.549 193.49 641.812 190.694L640.382 192.093ZM658.522 207.421C661.778 209.643 665.172 211.698 668.717 213.565L669.649 211.795C666.174 209.965 662.845 207.95 659.649 205.769L658.522 207.421ZM679.555 218.478C681.398 219.185 683.279 219.844 685.198 220.453L685.802 218.547C683.921 217.95 682.078 217.304 680.271 216.611L679.555 218.478ZM685.198 220.453C687.177 221.081 689.03 221.665 690.772 222.205L691.365 220.295C689.628 219.756 687.779 219.174 685.802 218.547L685.198 220.453ZM701.933 225.493C706.563 226.746 710.179 227.519 713.435 227.921L713.681 225.936C710.554 225.55 707.037 224.802 702.455 223.563L701.933 225.493ZM725.248 227.92C728.472 227.595 732.14 227.067 736.802 226.455L736.542 224.472C731.841 225.089 728.231 225.609 725.048 225.93L725.248 227.92ZM748.299 225.077C750.11 224.884 752.036 224.689 754.094 224.496L753.906 222.504C751.841 222.698 749.905 222.894 748.087 223.088L748.299 225.077ZM754.094 224.496C756.146 224.303 758.152 224.016 760.114 223.638L759.736 221.674C757.838 222.039 755.896 222.317 753.906 222.504L754.094 224.496ZM771.728 220.189C775.468 218.665 779.034 216.79 782.457 214.608L781.381 212.921C778.053 215.044 774.593 216.862 770.974 218.337L771.728 220.189ZM792.112 207.357C795.088 204.776 797.96 201.96 800.751 198.944L799.284 197.586C796.535 200.556 793.715 203.319 790.802 205.845L792.112 207.357ZM808.528 189.81C810.959 186.732 813.342 183.512 815.695 180.177L814.061 179.024C811.725 182.335 809.363 185.526 806.958 188.571L808.528 189.81ZM822.408 170.27C824.562 166.978 826.704 163.606 828.85 160.175L827.154 159.115C825.014 162.538 822.878 165.898 820.734 169.176L822.408 170.27ZM835.13 150.021C837.195 146.656 839.275 143.258 841.384 139.839L839.682 138.789C837.572 142.21 835.489 145.613 833.425 148.974L835.13 150.021ZM847.696 129.718C849.811 126.375 851.963 123.032 854.164 119.704L852.496 118.601C850.286 121.943 848.126 125.297 846.006 128.649L847.696 129.718ZM860.873 109.856C863.152 106.616 865.489 103.407 867.895 100.246L866.304 99.0345C863.881 102.218 861.529 105.447 859.237 108.705L860.873 109.856ZM875.307 90.9426C877.847 87.9053 880.465 84.9296 883.172 82.0307L881.711 80.6656C878.976 83.5933 876.334 86.5966 873.772 89.6596L875.307 90.9426ZM891.541 73.608C894.411 70.9017 897.377 68.2858 900.452 65.775L899.187 64.2259C896.073 66.7685 893.071 69.416 890.169 72.1531L891.541 73.608ZM909.924 58.6328C913.145 56.3989 916.478 54.2791 919.934 52.2872L918.936 50.5544C915.43 52.575 912.049 54.7248 908.784 56.9893L909.924 58.6328ZM930.434 46.8232C932.219 45.9901 934.035 45.1898 935.883 44.4239L935.117 42.5763C933.242 43.3535 931.399 44.1655 929.588 45.0108L930.434 46.8232ZM935.883 44.4239C937.894 43.5904 939.879 42.7989 941.843 42.054L941.133 40.1841C939.149 40.9369 937.144 41.7361 935.117 42.5763L935.883 44.4239ZM953.973 38.0157C958.199 36.8327 962.339 35.9368 966.426 35.3804L966.156 33.3987C961.964 33.9694 957.733 34.8862 953.434 36.0897L953.973 38.0157ZM979.087 34.8075C983.251 35.0247 987.4 35.6665 991.571 36.7944L992.093 34.8638C987.782 33.6979 983.492 33.0346 979.191 32.8102L979.087 34.8075ZM1003.4 41.305C1005.25 42.217 1007.11 43.2327 1008.99 44.3576L1010.01 42.6426C1008.09 41.4907 1006.19 40.4486 1004.29 39.5115L1003.4 41.305ZM1008.99 44.3576C1010.58 45.3172 1012.18 46.3276 1013.78 47.3859L1014.88 45.7192C1013.26 44.6451 1011.64 43.6185 1010.01 42.6426L1008.99 44.3576ZM1023.01 54.0463C1025.96 56.3374 1028.89 58.773 1031.8 61.3334L1033.12 59.832C1030.18 57.2473 1027.22 54.7857 1024.24 52.4678L1023.01 54.0463ZM1040.17 69.0923C1042.87 71.7154 1045.55 74.4319 1048.2 77.2253L1049.65 75.8494C1046.98 73.0377 1044.29 70.3015 1041.57 67.6579L1040.17 69.0923ZM1055.92 85.671C1058.43 88.5143 1060.91 91.4141 1063.36 94.3553L1064.89 93.0769C1062.44 90.1213 1059.94 87.2061 1057.42 84.3468L1055.92 85.671ZM1070.55 103.254C1072.92 106.258 1075.24 109.289 1077.52 112.329L1079.12 111.129C1076.83 108.077 1074.5 105.034 1072.12 102.017L1070.55 103.254ZM1084.3 121.568C1086.54 124.701 1088.74 127.828 1090.88 130.933L1092.52 129.799C1090.38 126.684 1088.18 123.546 1085.92 120.403L1084.3 121.568ZM1097.29 140.426C1099.44 143.678 1101.53 146.886 1103.54 150.028L1105.22 148.951C1103.21 145.8 1101.12 142.583 1098.95 139.321L1097.29 140.426ZM1109.63 159.73C1111.72 163.107 1113.69 166.373 1115.56 169.498L1117.28 168.473C1115.41 165.34 1113.42 162.066 1111.33 158.68L1109.63 159.73ZM1121.36 179.395C1123.46 183.033 1125.34 186.37 1127 189.343L1128.74 188.371C1127.09 185.39 1125.2 182.043 1123.1 178.397L1121.36 179.395ZM1132.48 199.413C1133.34 201.034 1134 202.295 1134.44 203.15C1134.66 203.577 1134.83 203.904 1134.94 204.122C1135 204.232 1135.04 204.315 1135.07 204.37C1135.08 204.397 1135.09 204.418 1135.1 204.432C1135.1 204.438 1135.1 204.444 1135.11 204.447C1135.11 204.449 1135.11 204.45 1135.11 204.451C1135.11 204.451 1135.11 204.451 1135.11 204.452C1135.11 204.452 1135.11 204.452 1135.11 204.452C1135.11 204.452 1135.11 204.452 1135.11 204.452C1135.11 204.452 1135.11 204.452 1136 204C1136.89 203.548 1136.89 203.548 1136.89 203.548C1136.89 203.548 1136.89 203.548 1136.89 203.548C1136.89 203.548 1136.89 203.548 1136.89 203.548C1136.89 203.548 1136.89 203.547 1136.89 203.547C1136.89 203.546 1136.89 203.545 1136.89 203.543C1136.89 203.539 1136.88 203.534 1136.88 203.526C1136.87 203.512 1136.86 203.491 1136.85 203.462C1136.82 203.406 1136.78 203.322 1136.72 203.211C1136.61 202.989 1136.44 202.66 1136.21 202.23C1135.77 201.369 1135.11 200.101 1134.24 198.475L1132.48 199.413Z" fill="#D4D5D7"/>
<g filter="url(#filter0_b_2010_12473)">
<rect x="20" width="88" height="88" rx="44" fill="#DED9FF" fill-opacity="0.56"/>
<g clip-path="url(#clip0_2010_12473)">
<path d="M69.3434 44.1768H66.2453C65.8445 44.1768 65.5197 44.5017 65.5197 44.9024C65.5197 45.3031 65.8445 45.6282 66.2453 45.6282H69.6913C69.4593 45.1595 69.3481 44.6687 69.3434 44.1768Z" fill="#4C34DE"/>
<path d="M85.6552 33.6856C85.6552 32.1427 84.4857 30.8917 83.043 30.8917H78.3845C76.9418 30.8917 75.7722 32.1425 75.7722 33.6856V39.3536L76.4633 39.0878L79.0654 34.0217L77.6433 40.4017L72.0944 42.536C71.2065 42.8776 70.7671 43.8728 71.1072 44.7571C71.4441 45.6331 72.4347 46.0881 73.3283 45.7443L79.7373 43.2793C80.2727 43.0733 80.6722 42.6125 80.7979 42.0491L82.3684 35.0037L82.4477 42.0304C82.4561 42.7718 81.8534 44.2331 80.3296 44.8193C80.204 44.8676 75.8326 46.5489 75.7193 46.5925V63.7405C75.7193 64.9429 76.6941 65.9176 77.8964 65.9176C79.0989 65.9176 80.0736 64.9429 80.0736 63.7405V48.0199H81.3129V63.7405C81.3129 64.9429 82.2877 65.9176 83.49 65.9176C84.6924 65.9176 85.6672 64.9429 85.6672 63.7405C85.6675 44.6836 85.6552 33.7424 85.6552 33.6856Z" fill="#4C34DE"/>
<path d="M80.6934 29.7335C82.8289 29.7335 84.5601 28.0023 84.5601 25.8668C84.5601 23.7312 82.8289 22 80.6934 22C78.5578 22 76.8266 23.7312 76.8266 25.8668C76.8266 28.0023 78.5578 29.7335 80.6934 29.7335Z" fill="#4C34DE"/>
<path d="M55.6849 36.6859C57.8226 36.6859 59.5555 34.953 59.5555 32.8154C59.5555 30.6777 57.8226 28.9448 55.6849 28.9448C53.5473 28.9448 51.8144 30.6777 51.8144 32.8154C51.8144 34.953 53.5473 36.6859 55.6849 36.6859Z" fill="#4C34DE"/>
<path d="M69.5469 46.7984H60.4607L63.3872 45.8572C64.309 45.5607 64.816 44.573 64.5196 43.651C64.2231 42.7292 63.2354 42.2222 62.3134 42.5186L61.9189 42.6455L60.0698 39.5864C59.8624 39.2435 59.4162 39.1334 59.0733 39.3408C58.7302 39.5482 58.6203 39.9944 58.8277 40.3374L60.499 43.1021L57.6201 44.028L57.6676 41.0105C57.6932 39.3795 56.3832 38.0396 54.7526 38.028L52.0515 38.0086C50.4187 37.9969 49.0897 39.3211 49.0941 40.953L49.1214 50.912C49.1251 52.2705 50.0624 53.4582 51.4015 53.7653H47.7111L45.2086 41.0348C45.054 40.2482 44.291 39.7358 43.5045 39.8906C42.7179 40.0452 42.2056 40.8081 42.3602 41.5947L45.093 55.4967C45.2237 56.1616 45.7964 56.644 46.4692 56.6662L43.6789 63.9011C43.4867 64.3996 43.7349 64.9597 44.2336 65.152C44.732 65.3444 45.2922 65.0961 45.4845 64.5973L48.5425 56.6682H54.6516L56.4001 61.2019L55.6408 63.1211C55.2132 64.2017 55.7426 65.4243 56.8232 65.8519C57.904 66.2795 59.1265 65.7498 59.554 64.6695L64.3305 52.5991C64.8762 51.2199 63.8585 49.7207 62.374 49.7207H62.3679C61.6847 49.7227 57.4799 49.735 55.3187 49.7412C54.0988 49.7448 53.0647 48.8408 52.9089 47.6308L52.9084 47.6273L52.3748 43.329L54.0806 47.1996C54.4428 48.0214 55.3671 48.4365 56.2221 48.1616L58.5485 47.4134C58.5056 47.5228 58.4813 47.6414 58.4813 47.766C58.4813 48.3008 58.9155 48.7336 59.449 48.7336H69.5471C70.0813 48.7336 70.5145 48.3004 70.5145 47.766C70.5145 47.2316 70.0813 46.7984 69.5469 46.7984ZM57.374 53.9435L59.2748 53.938L57.4508 58.5474L56.7251 56.6658C57.5044 56.6405 58.1288 56.0022 58.1288 55.2167C58.1287 54.6677 57.8236 54.1901 57.374 53.9435ZM56.6523 44.3395L55.2467 41.1502L57.4802 44.0731L56.6523 44.3395Z" fill="#4C34DE"/>
</g>
</g>
<path d="M9.0542 117H16.8071V115.199H11.1958V111.787H16.5V110.052H11.1958V106.823H16.8071V105.022H9.0542V117ZM18.459 117H20.5259V111.895C20.5259 110.625 21.2812 109.762 22.4683 109.762C23.647 109.762 24.228 110.467 24.228 111.721V117H26.2949V111.306C26.2949 109.264 25.1909 108.019 23.2568 108.019C21.9204 108.019 21.0239 108.633 20.5674 109.579H20.5259V108.201H18.459V117ZM31.2256 117.174C31.6406 117.174 32.0059 117.133 32.2466 117.1V115.547C32.1055 115.556 31.9478 115.581 31.7485 115.581C30.9932 115.581 30.6113 115.307 30.6113 114.443V109.795H32.2466V108.201H30.6113V105.968H28.5112V108.201H27.2661V109.795H28.5112V114.618C28.5112 116.427 29.3828 117.174 31.2256 117.174ZM33.666 117H35.7329V111.895C35.7329 110.592 36.4385 109.853 37.6089 109.853C37.9575 109.853 38.2729 109.903 38.4473 109.969V108.102C38.2896 108.06 38.0488 108.019 37.7915 108.019C36.7788 108.019 36.0483 108.658 35.7744 109.72H35.7329V108.201H33.666V117ZM41.9087 117.149C43.0708 117.149 44.0503 116.568 44.5566 115.647H44.6064V117H46.6733V110.949C46.6733 109.181 45.2539 108.019 43.0542 108.019C40.8213 108.019 39.4683 109.189 39.3438 110.75L39.3354 110.849H41.2529L41.2695 110.774C41.4023 110.127 42 109.67 42.9795 109.67C44.0254 109.67 44.6064 110.21 44.6064 111.098V111.704L42.3071 111.845C40.1738 111.978 38.9619 112.916 38.9619 114.477V114.493C38.9619 116.062 40.1489 117.149 41.9087 117.149ZM41.0205 114.41V114.402C41.0205 113.705 41.5767 113.265 42.5977 113.198L44.6064 113.074V113.738C44.6064 114.784 43.71 115.572 42.5229 115.572C41.6182 115.572 41.0205 115.132 41.0205 114.41ZM48.3418 117H50.4087V111.895C50.4087 110.625 51.1641 109.762 52.3511 109.762C53.5298 109.762 54.1108 110.467 54.1108 111.721V117H56.1777V111.306C56.1777 109.264 55.0737 108.019 53.1396 108.019C51.8032 108.019 50.9067 108.633 50.4502 109.579H50.4087V108.201H48.3418V117ZM61.7227 117.174C63.9473 117.174 65.4331 115.78 65.5908 113.945L65.5991 113.887H63.6484L63.6318 113.962C63.4409 114.883 62.7769 115.506 61.731 115.506C60.4277 115.506 59.5811 114.443 59.5811 112.609V112.601C59.5811 110.799 60.4194 109.695 61.7227 109.695C62.8184 109.695 63.4492 110.384 63.6235 111.239L63.6401 111.314H65.5908L65.5825 111.248C65.458 109.488 64.0137 108.019 61.6978 108.019C59.1328 108.019 57.4727 109.778 57.4727 112.584V112.592C57.4727 115.415 59.1079 117.174 61.7227 117.174ZM70.7041 117.174C73.0034 117.174 74.2983 115.813 74.5723 114.46L74.5972 114.369H72.6631L72.6465 114.427C72.4473 115.016 71.7749 115.564 70.7456 115.564C69.4009 115.564 68.5542 114.651 68.521 113.107H74.6802V112.443C74.6802 109.787 73.1196 108.019 70.6045 108.019C68.0894 108.019 66.4707 109.845 66.4707 112.617V112.625C66.4707 115.423 68.0645 117.174 70.7041 117.174ZM70.6294 109.637C71.7251 109.637 72.522 110.334 72.6714 111.729H68.5459C68.7119 110.376 69.5337 109.637 70.6294 109.637ZM83.2881 117.174C85.5874 117.174 86.8823 115.813 87.1562 114.46L87.1812 114.369H85.2471L85.2305 114.427C85.0312 115.016 84.3589 115.564 83.3296 115.564C81.9849 115.564 81.1382 114.651 81.105 113.107H87.2642V112.443C87.2642 109.787 85.7036 108.019 83.1885 108.019C80.6733 108.019 79.0547 109.845 79.0547 112.617V112.625C79.0547 115.423 80.6484 117.174 83.2881 117.174ZM83.2134 109.637C84.3091 109.637 85.106 110.334 85.2554 111.729H81.1299C81.2959 110.376 82.1177 109.637 83.2134 109.637ZM87.812 117H90.02L91.8379 113.846H91.8877L93.7139 117H95.9717L93.166 112.551L95.9966 108.201H93.7388L91.9873 111.289H91.9375L90.1694 108.201H87.8452L90.6592 112.609L87.812 117ZM99.4995 117.149C100.662 117.149 101.641 116.568 102.147 115.647H102.197V117H104.264V110.949C104.264 109.181 102.845 108.019 100.645 108.019C98.4121 108.019 97.0591 109.189 96.9346 110.75L96.9263 110.849H98.8438L98.8604 110.774C98.9932 110.127 99.5908 109.67 100.57 109.67C101.616 109.67 102.197 110.21 102.197 111.098V111.704L99.8979 111.845C97.7646 111.978 96.5527 112.916 96.5527 114.477V114.493C96.5527 116.062 97.7397 117.149 99.4995 117.149ZM98.6113 114.41V114.402C98.6113 113.705 99.1675 113.265 100.188 113.198L102.197 113.074V113.738C102.197 114.784 101.301 115.572 100.114 115.572C99.209 115.572 98.6113 115.132 98.6113 114.41ZM105.933 117H108V111.613C108 110.542 108.697 109.762 109.693 109.762C110.656 109.762 111.253 110.376 111.253 111.364V117H113.262V111.563C113.262 110.5 113.943 109.762 114.939 109.762C115.952 109.762 116.516 110.384 116.516 111.472V117H118.583V110.957C118.583 109.197 117.446 108.019 115.711 108.019C114.441 108.019 113.395 108.699 112.972 109.795H112.922C112.598 108.666 111.71 108.019 110.481 108.019C109.319 108.019 108.415 108.649 108.041 109.612H108V108.201H105.933V117Z" fill="black"/>
<g filter="url(#filter1_b_2010_12473)">
<rect x="452" width="88" height="88" rx="44" fill="#FFDCDB"/>
<path d="M516.969 34.0893C516.327 33.4774 515.484 33.1514 514.59 33.1732C513.698 33.1944 512.869 33.5599 512.257 34.2025L511.568 34.9269L510.654 35.887V26.6722C510.654 25.4701 509.674 24.4922 508.471 24.4922H476.18C474.978 24.4922 474 25.4701 474 26.6722V61.4114C474 62.6149 474.978 63.5938 476.18 63.5938H508.471C509.675 63.5938 510.654 62.6149 510.654 61.4114V45.5499L510.744 45.4552L516.395 39.5232C516.403 39.5148 516.41 39.5054 516.418 39.4967L517.082 38.8008C518.349 37.4704 518.298 35.3572 516.969 34.0893ZM496.572 54.9147L496.765 54.475L497.587 55.2571L497.169 55.4639C496.947 55.562 496.75 55.5505 496.629 55.4324C496.534 55.3391 496.47 55.1531 496.572 54.9147ZM498.826 54.6435L497.319 53.2094L498.158 51.2956L500.699 53.7163L498.826 54.6435ZM509.804 44.5596L501.797 52.9684L498.853 50.1637L499.599 49.3805C499.607 49.3721 499.616 49.363 499.624 49.354L510.462 37.9716C510.464 37.9699 510.465 37.9683 510.467 37.9663L512.061 36.2928L515.006 39.0975L509.804 44.5596ZM516.142 37.9048L515.901 38.1563L512.956 35.3519L513.197 35.0981C513.57 34.707 514.075 34.4848 514.621 34.4717C515.167 34.4593 515.682 34.657 516.072 35.0296C516.884 35.803 516.915 37.0931 516.142 37.9048Z" fill="#FF4B4B"/>
<path d="M505.31 32.2985H505.326C505.685 32.2985 505.976 32.0078 505.976 31.6492C505.976 31.2907 505.685 31 505.326 31H505.31C504.951 31 504.66 31.2907 504.66 31.6492C504.66 32.0078 504.951 32.2985 505.31 32.2985Z" fill="#FCF0F1"/>
<path d="M502.554 32.2985H502.57C502.929 32.2985 503.22 32.0078 503.22 31.6492C503.22 31.2907 502.929 31 502.57 31H502.554C502.195 31 501.904 31.2907 501.904 31.6492C501.904 32.0078 502.195 32.2985 502.554 32.2985Z" fill="#FCF0F1"/>
<path d="M499.797 32.3105H499.814C500.173 32.3105 500.463 32.0198 500.463 31.6613C500.463 31.3024 500.173 31.0117 499.814 31.0117H499.797C499.438 31.0117 499.148 31.3024 499.148 31.6613C499.148 32.0198 499.438 32.3105 499.797 32.3105Z" fill="#FCF0F1"/>
<path d="M494.362 31.6613C494.362 31.3024 494.071 31.0117 493.712 31.0117H479.65C479.291 31.0117 479 31.3024 479 31.6613C479 32.0198 479.291 32.3105 479.65 32.3105H493.712C494.071 32.3105 494.362 32.0198 494.362 31.6613Z" fill="#FCF0F1"/>
<path d="M479.799 43.0996H481.627C481.775 43.0996 481.898 43.0509 481.998 42.9539C482.097 42.8569 482.147 42.7394 482.147 42.6007C482.147 42.5269 482.133 42.4601 482.105 42.4C482.077 42.3399 482.04 42.2869 481.994 42.2405C481.888 42.1392 481.766 42.0881 481.627 42.0881H480.353V41.0978H481.468C481.62 41.0978 481.746 41.0482 481.845 40.9488C481.945 40.8494 481.994 40.7306 481.994 40.592C481.994 40.458 481.943 40.3405 481.842 40.2388C481.74 40.1374 481.615 40.0864 481.468 40.0864H480.346V39.1307H481.593C481.727 39.1307 481.844 39.0797 481.946 38.9783C482.043 38.8675 482.091 38.745 482.091 38.611C482.091 38.4727 482.043 38.3539 481.946 38.2545C481.849 38.1552 481.731 38.1055 481.593 38.1055H479.792C479.635 38.1055 479.501 38.1632 479.39 38.2787C479.279 38.3942 479.224 38.5281 479.224 38.6805V42.5313C479.224 42.6931 479.279 42.828 479.39 42.9364C479.501 43.0452 479.637 43.0996 479.799 43.0996Z" fill="#FDF0F1"/>
<path d="M483.605 43.1542C483.789 43.1542 483.944 43.0643 484.069 42.8843L485.163 41.3536L486.251 42.8843C486.389 43.0643 486.546 43.1542 486.722 43.1542C486.805 43.1542 486.878 43.1405 486.943 43.1129C487.008 43.0851 487.068 43.0461 487.123 42.9951C487.234 42.8843 487.29 42.7574 487.29 42.6141C487.29 42.4758 487.248 42.3509 487.165 42.2401L485.814 40.4187L486.915 38.9571C486.999 38.8372 487.04 38.717 487.04 38.5969C487.04 38.4445 486.982 38.3142 486.867 38.2058C486.751 38.0974 486.62 38.043 486.472 38.043C486.283 38.043 486.121 38.14 485.987 38.3337L485.163 39.5113L484.339 38.3337C484.2 38.14 484.038 38.043 483.854 38.043C483.697 38.043 483.563 38.0984 483.452 38.2091C483.341 38.3199 483.286 38.4492 483.286 38.5969C483.286 38.7355 483.325 38.8557 483.404 38.9571L484.512 40.4187L483.154 42.2401C483.071 42.3509 483.03 42.4758 483.03 42.6141C483.03 42.7621 483.087 42.889 483.203 42.9951C483.318 43.1012 483.452 43.1542 483.605 43.1542Z" fill="#FDF0F1"/>
<path d="M488.583 43.1754C488.865 43.1754 489.045 43.0465 489.124 42.7877L489.31 42.1572H491.229L491.43 42.7877C491.518 43.0418 491.689 43.1687 491.942 43.1687C492.095 43.1687 492.224 43.1223 492.33 43.03C492.441 42.924 492.497 42.8108 492.497 42.6906C492.497 42.5708 492.478 42.4597 492.441 42.3583L491.084 38.6664C490.931 38.2511 490.661 38.043 490.273 38.043C489.88 38.043 489.608 38.2508 489.456 38.6664L488.077 42.3513C488.045 42.4342 488.029 42.5268 488.029 42.6282C488.029 42.7806 488.082 42.9102 488.188 43.0163C488.294 43.1223 488.426 43.1754 488.583 43.1754ZM490.273 39.2068L490.89 41.1528L489.629 41.1461L490.273 39.2068Z" fill="#FDF0F1"/>
<path d="M494.077 43.1604C494.4 43.1604 494.588 42.9829 494.638 42.627L495.033 39.8774L495.864 42.7103C495.961 43.0104 496.153 43.1604 496.439 43.1604C496.61 43.1604 496.736 43.1282 496.817 43.0634C496.897 42.999 496.963 42.8811 497.014 42.7103L497.845 39.8774L498.247 42.627C498.302 42.9829 498.492 43.1604 498.815 43.1604C498.976 43.1604 499.11 43.1061 499.217 42.9976C499.323 42.8892 499.376 42.7495 499.376 42.5787L499.362 42.4679L498.718 38.6443C498.686 38.4738 498.599 38.3318 498.458 38.2187C498.317 38.1056 498.157 38.0488 497.977 38.0488C497.593 38.0488 497.347 38.2358 497.236 38.6098L496.439 41.2487L495.656 38.6098C495.537 38.2358 495.29 38.0488 494.916 38.0488C494.731 38.0488 494.567 38.1066 494.424 38.222C494.28 38.3375 494.195 38.4782 494.167 38.6443L493.523 42.4679C493.514 42.4911 493.509 42.528 493.509 42.5787C493.509 42.7448 493.562 42.8835 493.669 42.9943C493.775 43.105 493.911 43.1604 494.077 43.1604V43.1604Z" fill="#FDF0F1"/>
<path d="M493.455 48.6973H479.907C479.548 48.6973 479.257 48.988 479.257 49.3465C479.257 49.705 479.548 49.9961 479.907 49.9961H493.455C493.813 49.9961 494.104 49.705 494.104 49.3465C494.104 48.988 493.813 48.6973 493.455 48.6973Z" fill="#F5F3F7"/>
<path d="M481.706 56.2628C481.706 56.6214 481.997 56.9121 482.356 56.9121H492.363C492.721 56.9121 493.012 56.6214 493.012 56.2628C493.012 55.904 492.721 55.6133 492.363 55.6133H482.356C481.997 55.6133 481.706 55.904 481.706 56.2628Z" fill="#F5F3F7"/>
</g>
<path d="M439.554 117H441.488V108.483H441.546L445 117H446.452L449.905 108.483H449.972V117H451.897V105.022H449.424L445.755 114.169H445.697L442.028 105.022H439.554V117ZM454.902 106.939C455.55 106.939 456.048 106.425 456.048 105.811C456.048 105.18 455.55 104.673 454.902 104.673C454.255 104.673 453.749 105.18 453.749 105.811C453.749 106.425 454.255 106.939 454.902 106.939ZM453.865 117H455.932V108.201H453.865V117ZM460.962 117.174C462.232 117.174 463.203 116.543 463.701 115.506H463.751V117H465.818V105.022H463.751V109.712H463.701C463.203 108.658 462.199 108.019 460.954 108.019C458.746 108.019 457.326 109.753 457.326 112.592V112.601C457.326 115.431 458.737 117.174 460.962 117.174ZM461.584 115.431C460.256 115.431 459.435 114.352 459.435 112.601V112.592C459.435 110.841 460.265 109.762 461.584 109.762C462.854 109.762 463.751 110.874 463.751 112.592V112.601C463.751 114.327 462.863 115.431 461.584 115.431ZM467.735 113.057H473.089V111.214H467.735V113.057ZM478.244 117.174C478.659 117.174 479.024 117.133 479.265 117.1V115.547C479.124 115.556 478.966 115.581 478.767 115.581C478.012 115.581 477.63 115.307 477.63 114.443V109.795H479.265V108.201H477.63V105.968H475.53V108.201H474.285V109.795H475.53V114.618C475.53 116.427 476.401 117.174 478.244 117.174ZM484.387 117.174C486.686 117.174 487.981 115.813 488.255 114.46L488.28 114.369H486.346L486.329 114.427C486.13 115.016 485.458 115.564 484.428 115.564C483.083 115.564 482.237 114.651 482.204 113.107H488.363V112.443C488.363 109.787 486.802 108.019 484.287 108.019C481.772 108.019 480.153 109.845 480.153 112.617V112.625C480.153 115.423 481.747 117.174 484.387 117.174ZM484.312 109.637C485.408 109.637 486.205 110.334 486.354 111.729H482.229C482.395 110.376 483.216 109.637 484.312 109.637ZM489.699 117H491.766V111.895C491.766 110.592 492.472 109.853 493.642 109.853C493.991 109.853 494.306 109.903 494.48 109.969V108.102C494.323 108.06 494.082 108.019 493.825 108.019C492.812 108.019 492.082 108.658 491.808 109.72H491.766V108.201H489.699V117ZM495.543 117H497.61V111.613C497.61 110.542 498.307 109.762 499.303 109.762C500.266 109.762 500.864 110.376 500.864 111.364V117H502.873V111.563C502.873 110.5 503.553 109.762 504.549 109.762C505.562 109.762 506.126 110.384 506.126 111.472V117H508.193V110.957C508.193 109.197 507.056 108.019 505.321 108.019C504.051 108.019 503.005 108.699 502.582 109.795H502.532C502.208 108.666 501.32 108.019 500.092 108.019C498.93 108.019 498.025 108.649 497.651 109.612H497.61V108.201H495.543V117ZM517.125 117.174C519.424 117.174 520.719 115.813 520.993 114.46L521.018 114.369H519.084L519.067 114.427C518.868 115.016 518.196 115.564 517.167 115.564C515.822 115.564 514.975 114.651 514.942 113.107H521.101V112.443C521.101 109.787 519.541 108.019 517.025 108.019C514.51 108.019 512.892 109.845 512.892 112.617V112.625C512.892 115.423 514.485 117.174 517.125 117.174ZM517.05 109.637C518.146 109.637 518.943 110.334 519.092 111.729H514.967C515.133 110.376 515.955 109.637 517.05 109.637ZM521.649 117H523.857L525.675 113.846H525.725L527.551 117H529.809L527.003 112.551L529.833 108.201H527.576L525.824 111.289H525.774L524.006 108.201H521.682L524.496 112.609L521.649 117ZM533.336 117.149C534.499 117.149 535.478 116.568 535.984 115.647H536.034V117H538.101V110.949C538.101 109.181 536.682 108.019 534.482 108.019C532.249 108.019 530.896 109.189 530.771 110.75L530.763 110.849H532.681L532.697 110.774C532.83 110.127 533.428 109.67 534.407 109.67C535.453 109.67 536.034 110.21 536.034 111.098V111.704L533.735 111.845C531.602 111.978 530.39 112.916 530.39 114.477V114.493C530.39 116.062 531.577 117.149 533.336 117.149ZM532.448 114.41V114.402C532.448 113.705 533.004 113.265 534.025 113.198L536.034 113.074V113.738C536.034 114.784 535.138 115.572 533.951 115.572C533.046 115.572 532.448 115.132 532.448 114.41ZM539.77 117H541.836V111.613C541.836 110.542 542.534 109.762 543.53 109.762C544.493 109.762 545.09 110.376 545.09 111.364V117H547.099V111.563C547.099 110.5 547.78 109.762 548.776 109.762C549.789 109.762 550.353 110.384 550.353 111.472V117H552.42V110.957C552.42 109.197 551.283 108.019 549.548 108.019C548.278 108.019 547.232 108.699 546.809 109.795H546.759C546.435 108.666 545.547 108.019 544.318 108.019C543.156 108.019 542.251 108.649 541.878 109.612H541.836V108.201H539.77V117Z" fill="black"/>
<rect x="928" width="88" height="88" rx="44" fill="#FFE4CC"/>
<path d="M982.27 45.5469C976.631 45.5469 972.043 50.1345 972.043 55.7734C972.043 61.4124 976.631 66 982.27 66C987.956 66 992.582 61.4124 992.582 55.7734C992.582 50.1345 987.956 45.5469 982.27 45.5469ZM985.408 54.5362L981.971 58.6612C981.724 58.9569 981.36 59.125 980.981 59.125C980.931 59.125 980.882 59.1222 980.832 59.1164C980.4 59.0662 980.022 58.8015 979.827 58.4124L978.452 55.6624C978.134 55.0257 978.392 54.2513 979.029 53.933C979.666 53.6144 980.44 53.8727 980.758 54.5095L981.252 55.4965L983.428 52.8857C983.883 52.3389 984.696 52.265 985.243 52.7206C985.79 53.1764 985.864 53.9892 985.408 54.5362V54.5362Z" fill="#EB8153"/>
<path d="M981.714 29.3436L976.484 23.9348C976.481 23.9322 976.479 23.9296 976.476 23.927C975.272 22.7024 973.596 22 971.879 22H955.285C953.153 22 951.418 23.7348 951.418 25.8672V59.2969C951.418 61.4292 953.153 63.1641 955.285 63.1641H971.819C970.337 61.0747 969.465 58.5241 969.465 55.7734C969.465 48.7129 975.209 42.9688 982.27 42.9688C982.705 42.9688 983.134 42.9906 983.559 43.0326V33.8577C983.559 32.1588 982.903 30.5559 981.714 29.3436V29.3436ZM965.082 50.7891H958.207C957.495 50.7891 956.918 50.2119 956.918 49.5C956.918 48.7881 957.495 48.2109 958.207 48.2109H965.082C965.794 48.2109 966.371 48.7881 966.371 49.5C966.371 50.2119 965.794 50.7891 965.082 50.7891ZM965.082 43.9141H958.207C957.495 43.9141 956.918 43.3369 956.918 42.625C956.918 41.9131 957.495 41.3359 958.207 41.3359H965.082C965.794 41.3359 966.371 41.9131 966.371 42.625C966.371 43.3369 965.794 43.9141 965.082 43.9141ZM965.082 37.0391H958.207C957.495 37.0391 956.918 36.4619 956.918 35.75C956.918 35.0381 957.495 34.4609 958.207 34.4609H965.082C965.794 34.4609 966.371 35.0381 966.371 35.75C966.371 36.4619 965.794 37.0391 965.082 37.0391ZM973.332 43.9141H971.957C971.245 43.9141 970.668 43.3369 970.668 42.625C970.668 41.9131 971.245 41.3359 971.957 41.3359H973.332C974.044 41.3359 974.621 41.9131 974.621 42.625C974.621 43.3369 974.044 43.9141 973.332 43.9141ZM973.332 37.0391H971.957C971.245 37.0391 970.668 36.4619 970.668 35.75C970.668 35.0381 971.245 34.4609 971.957 34.4609H973.332C974.044 34.4609 974.621 35.0381 974.621 35.75C974.621 36.4619 974.044 37.0391 973.332 37.0391Z" fill="#EB8153"/>
<path d="M909.054 117H911.196V112.111H916.218V110.368H911.196V106.823H916.691V105.022H909.054V117ZM919.14 106.939C919.787 106.939 920.285 106.425 920.285 105.811C920.285 105.18 919.787 104.673 919.14 104.673C918.492 104.673 917.986 105.18 917.986 105.811C917.986 106.425 918.492 106.939 919.14 106.939ZM918.102 117H920.169V108.201H918.102V117ZM921.929 117H923.996V111.895C923.996 110.625 924.751 109.762 925.938 109.762C927.117 109.762 927.698 110.467 927.698 111.721V117H929.765V111.306C929.765 109.264 928.661 108.019 926.727 108.019C925.39 108.019 924.494 108.633 924.037 109.579H923.996V108.201H921.929V117ZM934.023 117.149C935.185 117.149 936.165 116.568 936.671 115.647H936.721V117H938.788V110.949C938.788 109.181 937.368 108.019 935.168 108.019C932.936 108.019 931.583 109.189 931.458 110.75L931.45 110.849H933.367L933.384 110.774C933.517 110.127 934.114 109.67 935.094 109.67C936.14 109.67 936.721 110.21 936.721 111.098V111.704L934.421 111.845C932.288 111.978 931.076 112.916 931.076 114.477V114.493C931.076 116.062 932.263 117.149 934.023 117.149ZM933.135 114.41V114.402C933.135 113.705 933.691 113.265 934.712 113.198L936.721 113.074V113.738C936.721 114.784 935.824 115.572 934.637 115.572C933.732 115.572 933.135 115.132 933.135 114.41ZM940.514 117H942.581V105.022H940.514V117ZM947.744 119.905H949.811V115.514H949.853C950.351 116.543 951.355 117.174 952.608 117.174C954.816 117.174 956.228 115.431 956.228 112.609V112.601C956.228 109.762 954.816 108.019 952.583 108.019C951.322 108.019 950.359 108.666 949.853 109.72H949.811V108.201H947.744V119.905ZM951.969 115.431C950.691 115.431 949.794 114.327 949.794 112.609V112.601C949.794 110.874 950.691 109.762 951.969 109.762C953.289 109.762 954.119 110.841 954.119 112.601V112.609C954.119 114.344 953.289 115.431 951.969 115.431ZM957.556 117H959.623V111.895C959.623 110.592 960.328 109.853 961.499 109.853C961.847 109.853 962.163 109.903 962.337 109.969V108.102C962.179 108.06 961.938 108.019 961.681 108.019C960.668 108.019 959.938 108.658 959.664 109.72H959.623V108.201H957.556V117ZM966.96 117.174C969.542 117.174 971.219 115.456 971.219 112.601V112.584C971.219 109.745 969.517 108.019 966.952 108.019C964.396 108.019 962.702 109.762 962.702 112.584V112.601C962.702 115.448 964.371 117.174 966.96 117.174ZM966.969 115.506C965.649 115.506 964.811 114.452 964.811 112.601V112.584C964.811 110.758 965.666 109.695 966.952 109.695C968.264 109.695 969.11 110.75 969.11 112.584V112.601C969.11 114.443 968.272 115.506 966.969 115.506ZM973.626 106.939C974.273 106.939 974.78 106.425 974.78 105.811C974.78 105.18 974.273 104.673 973.626 104.673C972.987 104.673 972.472 105.18 972.472 105.811C972.472 106.425 972.987 106.939 973.626 106.939ZM971.659 119.93C973.659 119.93 974.664 119.034 974.664 117.249V108.201H972.597V117.216C972.597 118.029 972.273 118.295 971.418 118.295C971.318 118.295 971.227 118.287 971.144 118.287V119.905C971.269 119.922 971.484 119.93 971.659 119.93ZM980.283 117.174C982.583 117.174 983.877 115.813 984.151 114.46L984.176 114.369H982.242L982.226 114.427C982.026 115.016 981.354 115.564 980.325 115.564C978.98 115.564 978.133 114.651 978.1 113.107H984.259V112.443C984.259 109.787 982.699 108.019 980.184 108.019C977.668 108.019 976.05 109.845 976.05 112.617V112.625C976.05 115.423 977.644 117.174 980.283 117.174ZM980.208 109.637C981.304 109.637 982.101 110.334 982.25 111.729H978.125C978.291 110.376 979.113 109.637 980.208 109.637ZM989.48 117.174C991.705 117.174 993.191 115.78 993.349 113.945L993.357 113.887H991.406L991.39 113.962C991.199 114.883 990.535 115.506 989.489 115.506C988.186 115.506 987.339 114.443 987.339 112.609V112.601C987.339 110.799 988.177 109.695 989.48 109.695C990.576 109.695 991.207 110.384 991.381 111.239L991.398 111.314H993.349L993.34 111.248C993.216 109.488 991.771 108.019 989.456 108.019C986.891 108.019 985.23 109.778 985.23 112.584V112.592C985.23 115.415 986.866 117.174 989.48 117.174ZM997.864 117.174C998.279 117.174 998.645 117.133 998.885 117.1V115.547C998.744 115.556 998.586 115.581 998.387 115.581C997.632 115.581 997.25 115.307 997.25 114.443V109.795H998.885V108.201H997.25V105.968H995.15V108.201H993.905V109.795H995.15V114.618C995.15 116.427 996.021 117.174 997.864 117.174Z" fill="black"/>
<g filter="url(#filter2_b_2010_12473)">
<rect x="229" y="175" width="88" height="88" rx="44" fill="#B9DDFF"/>
<g clip-path="url(#clip1_2010_12473)">
<path d="M271.722 212.295L263.297 209.346C263.297 212.039 263.274 212.02 263.359 212.274C263.476 212.639 263.752 212.941 264.123 213.084C273.303 216.615 272.657 216.406 273 216.406C273.34 216.406 272.686 216.618 281.876 213.084C282.368 212.894 282.703 212.422 282.703 211.88V209.487L274.223 212.314C273.41 212.586 272.53 212.579 271.722 212.295V212.295Z" fill="#1B5BF7"/>
<path d="M259.31 205.166C259.621 205.372 258.583 204.964 272.574 209.861C272.842 209.956 273.134 209.958 273.407 209.868C278.282 208.243 281.396 207.205 285.302 205.903V213.175C285.302 213.531 285.447 213.854 285.68 214.087C286.488 214.895 287.881 214.319 287.881 213.175C287.881 204.383 287.879 204.184 287.878 204.185C287.917 203.636 287.571 203.081 286.999 202.891C273.234 198.303 273.306 198.295 273 198.295C272.683 198.295 272.775 198.297 259.63 202.897C258.65 203.24 258.455 204.554 259.31 205.166V205.166Z" fill="#1B5BF7"/>
<path d="M258.756 225.462H261.355V228.061H258.756V225.462Z" fill="#1B5BF7"/>
<path d="M293.711 204.114H290.46V213.175C290.46 215.308 288.724 217.043 286.592 217.043C285.219 217.043 284.011 216.324 283.324 215.244C282.969 215.445 283.559 215.199 274.389 218.727C273.511 219.065 272.522 219.077 271.611 218.727L263.197 215.49C261.703 214.915 260.718 213.482 260.718 211.88V208.444L258.778 207.765C257.228 207.223 256.188 205.756 256.188 204.114H252.289C251.578 204.114 251 204.692 251 205.403V233.239C251 233.951 251.578 234.528 252.289 234.528H263.944V237.127H260.056C259.344 237.127 258.766 237.704 258.766 238.416C258.766 239.129 259.344 239.706 260.056 239.706H285.944C286.656 239.706 287.234 239.129 287.234 238.416C287.234 237.704 286.656 237.127 285.944 237.127H282.056V234.528H293.711C294.422 234.528 295 233.951 295 233.239V205.403C295 204.692 294.422 204.114 293.711 204.114V204.114ZM263.934 229.35C263.934 230.063 263.356 230.64 262.645 230.64H257.467C256.755 230.64 256.177 230.063 256.177 229.35V224.173C256.177 223.46 256.755 222.884 257.467 222.884H262.645C263.356 222.884 263.934 223.46 263.934 224.173V229.35ZM288.533 230.64H267.822C267.11 230.64 266.533 230.063 266.533 229.35C266.533 228.638 267.11 228.061 267.822 228.061H288.533C289.245 228.061 289.823 228.638 289.823 229.35C289.823 230.063 289.245 230.64 288.533 230.64ZM288.533 225.462H267.822C267.11 225.462 266.533 224.885 266.533 224.173C266.533 223.46 267.11 222.884 267.822 222.884H288.533C289.245 222.884 289.823 223.46 289.823 224.173C289.823 224.885 289.245 225.462 288.533 225.462Z" fill="#1B5BF7"/>
</g>
</g>
<path d="M231.554 292H233.696V287.111H238.718V285.368H233.696V281.823H239.191V280.022H231.554V292ZM244.155 292.174C246.736 292.174 248.413 290.456 248.413 287.601V287.584C248.413 284.745 246.711 283.019 244.146 283.019C241.59 283.019 239.896 284.762 239.896 287.584V287.601C239.896 290.448 241.565 292.174 244.155 292.174ZM244.163 290.506C242.843 290.506 242.005 289.452 242.005 287.601V287.584C242.005 285.758 242.86 284.695 244.146 284.695C245.458 284.695 246.305 285.75 246.305 287.584V287.601C246.305 289.443 245.466 290.506 244.163 290.506ZM252.738 292.174C254.066 292.174 254.971 291.56 255.427 290.622H255.469V292H257.536V283.201H255.469V288.298C255.469 289.576 254.713 290.431 253.526 290.431C252.348 290.431 251.767 289.726 251.767 288.48V283.201H249.7V288.887C249.7 290.929 250.804 292.174 252.738 292.174ZM259.237 292H261.304V286.895C261.304 285.625 262.06 284.762 263.247 284.762C264.425 284.762 265.006 285.467 265.006 286.721V292H267.073V286.306C267.073 284.264 265.969 283.019 264.035 283.019C262.699 283.019 261.802 283.633 261.346 284.579H261.304V283.201H259.237V292ZM272.004 292.174C273.274 292.174 274.245 291.543 274.743 290.506H274.793V292H276.86V280.022H274.793V284.712H274.743C274.245 283.658 273.241 283.019 271.996 283.019C269.788 283.019 268.368 284.753 268.368 287.592V287.601C268.368 290.431 269.779 292.174 272.004 292.174ZM272.626 290.431C271.298 290.431 270.477 289.352 270.477 287.601V287.592C270.477 285.841 271.307 284.762 272.626 284.762C273.896 284.762 274.793 285.874 274.793 287.592V287.601C274.793 289.327 273.905 290.431 272.626 290.431ZM281.193 292.149C282.355 292.149 283.334 291.568 283.841 290.647H283.891V292H285.958V285.949C285.958 284.181 284.538 283.019 282.338 283.019C280.105 283.019 278.752 284.189 278.628 285.75L278.62 285.849H280.537L280.554 285.774C280.687 285.127 281.284 284.67 282.264 284.67C283.31 284.67 283.891 285.21 283.891 286.098V286.704L281.591 286.845C279.458 286.978 278.246 287.916 278.246 289.477V289.493C278.246 291.062 279.433 292.149 281.193 292.149ZM280.305 289.41V289.402C280.305 288.705 280.861 288.265 281.882 288.198L283.891 288.074V288.738C283.891 289.784 282.994 290.572 281.807 290.572C280.902 290.572 280.305 290.132 280.305 289.41ZM290.896 292.174C291.312 292.174 291.677 292.133 291.917 292.1V290.547C291.776 290.556 291.619 290.581 291.419 290.581C290.664 290.581 290.282 290.307 290.282 289.443V284.795H291.917V283.201H290.282V280.968H288.182V283.201H286.937V284.795H288.182V289.618C288.182 291.427 289.054 292.174 290.896 292.174ZM294.433 281.939C295.08 281.939 295.578 281.425 295.578 280.811C295.578 280.18 295.08 279.673 294.433 279.673C293.785 279.673 293.279 280.18 293.279 280.811C293.279 281.425 293.785 281.939 294.433 281.939ZM293.395 292H295.462V283.201H293.395V292ZM301.115 292.174C303.696 292.174 305.373 290.456 305.373 287.601V287.584C305.373 284.745 303.671 283.019 301.106 283.019C298.55 283.019 296.856 284.762 296.856 287.584V287.601C296.856 290.448 298.525 292.174 301.115 292.174ZM301.123 290.506C299.803 290.506 298.965 289.452 298.965 287.601V287.584C298.965 285.758 299.82 284.695 301.106 284.695C302.418 284.695 303.265 285.75 303.265 287.584V287.601C303.265 289.443 302.426 290.506 301.123 290.506ZM306.701 292H308.768V286.895C308.768 285.625 309.523 284.762 310.71 284.762C311.889 284.762 312.47 285.467 312.47 286.721V292H314.537V286.306C314.537 284.264 313.433 283.019 311.499 283.019C310.163 283.019 309.266 283.633 308.81 284.579H308.768V283.201H306.701V292Z" fill="black"/>
<rect x="690" y="175" width="88" height="88" rx="44" fill="#D1FFE1"/>
<path d="M720.938 212.125H747.062V228.625H720.938V212.125Z" fill="#3DC06C"/>
<path d="M752.562 231.375H739.5V233.438C739.5 233.985 739.283 234.509 738.896 234.896C738.509 235.283 737.985 235.5 737.438 235.5H730.562C730.015 235.5 729.491 235.283 729.104 234.896C728.717 234.509 728.5 233.985 728.5 233.438V231.375H715.438C715.255 231.375 715.08 231.447 714.951 231.576C714.822 231.705 714.75 231.88 714.75 232.062V234.812C714.751 235.724 715.114 236.598 715.758 237.242C716.402 237.886 717.276 238.249 718.188 238.25H749.812C750.724 238.249 751.598 237.886 752.242 237.242C752.886 236.598 753.249 235.724 753.25 234.812V232.062C753.25 231.88 753.178 231.705 753.049 231.576C752.92 231.447 752.745 231.375 752.562 231.375Z" fill="#3DC06C"/>
<path d="M730.562 234.125H737.438C737.62 234.125 737.795 234.053 737.924 233.924C738.053 233.795 738.125 233.62 738.125 233.438V231.375H729.875V233.438C729.875 233.62 729.947 233.795 730.076 233.924C730.205 234.053 730.38 234.125 730.562 234.125Z" fill="#3DC06C"/>
<path d="M718.875 205.25C719.3 205.248 719.714 205.115 720.061 204.869C720.407 204.623 720.669 204.276 720.811 203.875H726.438V206.625H727.813V203.187C727.813 203.005 727.74 202.83 727.611 202.701C727.482 202.572 727.307 202.5 727.125 202.5H720.811C720.684 202.144 720.462 201.83 720.169 201.593C719.876 201.355 719.524 201.202 719.15 201.151C718.776 201.1 718.395 201.152 718.049 201.303C717.703 201.454 717.405 201.697 717.188 202.006C716.97 202.314 716.842 202.677 716.817 203.053C716.792 203.43 716.87 203.806 717.045 204.141C717.219 204.476 717.482 204.756 717.804 204.952C718.127 205.148 718.498 205.251 718.875 205.25V205.25Z" fill="#3DC06C"/>
<path d="M733.313 203.748V206.625H734.688V203.748C735.146 203.586 735.533 203.267 735.779 202.848C736.025 202.428 736.115 201.935 736.033 201.455C735.951 200.976 735.701 200.541 735.329 200.227C734.957 199.913 734.487 199.741 734 199.741C733.513 199.741 733.043 199.913 732.671 200.227C732.299 200.541 732.049 200.976 731.967 201.455C731.885 201.935 731.975 202.428 732.221 202.848C732.467 203.267 732.854 203.586 733.313 203.748V203.748Z" fill="#3DC06C"/>
<path d="M741.562 203.875H747.189C747.351 204.334 747.67 204.72 748.09 204.967C748.51 205.213 749.003 205.303 749.482 205.22C749.962 205.138 750.397 204.889 750.71 204.517C751.024 204.145 751.196 203.674 751.196 203.188C751.196 202.701 751.024 202.23 750.71 201.858C750.397 201.486 749.962 201.237 749.482 201.155C749.003 201.072 748.51 201.162 748.09 201.409C747.67 201.655 747.351 202.041 747.189 202.5H740.875C740.693 202.5 740.518 202.572 740.389 202.701C740.26 202.83 740.188 203.005 740.188 203.188V206.625H741.562V203.875Z" fill="#3DC06C"/>
<path d="M719.562 229.312V211.438C719.562 211.255 719.635 211.08 719.764 210.951C719.893 210.822 720.068 210.75 720.25 210.75H747.75C747.932 210.75 748.107 210.822 748.236 210.951C748.365 211.08 748.438 211.255 748.438 211.438V229.312C748.438 229.495 748.365 229.67 748.236 229.799C748.107 229.928 747.932 230 747.75 230H751.188V210.062C751.188 209.515 750.97 208.991 750.583 208.604C750.197 208.217 749.672 208 749.125 208H718.875C718.328 208 717.803 208.217 717.417 208.604C717.03 208.991 716.812 209.515 716.812 210.062V230H720.25C720.068 230 719.893 229.928 719.764 229.799C719.635 229.67 719.562 229.495 719.562 229.312Z" fill="#3DC06C"/>
<path d="M670.554 292H678.133V290.199H672.696V280.022H670.554V292ZM683.163 292.174C685.462 292.174 686.757 290.813 687.031 289.46L687.056 289.369H685.122L685.105 289.427C684.906 290.016 684.234 290.564 683.205 290.564C681.86 290.564 681.013 289.651 680.98 288.107H687.139V287.443C687.139 284.787 685.579 283.019 683.063 283.019C680.548 283.019 678.93 284.845 678.93 287.617V287.625C678.93 290.423 680.523 292.174 683.163 292.174ZM683.088 284.637C684.184 284.637 684.981 285.334 685.13 286.729H681.005C681.171 285.376 681.993 284.637 683.088 284.637ZM691.074 292.149C692.236 292.149 693.215 291.568 693.722 290.647H693.771V292H695.838V285.949C695.838 284.181 694.419 283.019 692.219 283.019C689.986 283.019 688.633 284.189 688.509 285.75L688.5 285.849H690.418L690.435 285.774C690.567 285.127 691.165 284.67 692.145 284.67C693.19 284.67 693.771 285.21 693.771 286.098V286.704L691.472 286.845C689.339 286.978 688.127 287.916 688.127 289.477V289.493C688.127 291.062 689.314 292.149 691.074 292.149ZM690.186 289.41V289.402C690.186 288.705 690.742 288.265 691.763 288.198L693.771 288.074V288.738C693.771 289.784 692.875 290.572 691.688 290.572C690.783 290.572 690.186 290.132 690.186 289.41ZM697.507 292H699.574V286.895C699.574 285.592 700.279 284.853 701.45 284.853C701.798 284.853 702.114 284.903 702.288 284.969V283.102C702.13 283.06 701.89 283.019 701.632 283.019C700.62 283.019 699.889 283.658 699.615 284.72H699.574V283.201H697.507V292ZM703.351 292H705.417V286.895C705.417 285.625 706.173 284.762 707.36 284.762C708.539 284.762 709.12 285.467 709.12 286.721V292H711.187V286.306C711.187 284.264 710.083 283.019 708.148 283.019C706.812 283.019 705.916 283.633 705.459 284.579H705.417V283.201H703.351V292ZM713.942 281.939C714.59 281.939 715.088 281.425 715.088 280.811C715.088 280.18 714.59 279.673 713.942 279.673C713.295 279.673 712.789 280.18 712.789 280.811C712.789 281.425 713.295 281.939 713.942 281.939ZM712.905 292H714.972V283.201H712.905V292ZM716.731 292H718.798V286.895C718.798 285.625 719.554 284.762 720.741 284.762C721.919 284.762 722.5 285.467 722.5 286.721V292H724.567V286.306C724.567 284.264 723.463 283.019 721.529 283.019C720.193 283.019 719.296 283.633 718.84 284.579H718.798V283.201H716.731V292ZM730.195 295.08C732.744 295.08 734.346 293.743 734.346 291.751V283.201H732.279V284.695H732.229C731.731 283.683 730.768 283.019 729.523 283.019C727.298 283.019 725.862 284.729 725.862 287.509V287.518C725.862 290.257 727.282 291.95 729.49 291.95C730.751 291.95 731.748 291.353 732.237 290.415H732.279V291.685C732.279 292.805 731.54 293.519 730.195 293.519C729.116 293.519 728.411 293.137 728.187 292.631L728.162 292.564H726.128L726.145 292.639C726.394 294.017 727.863 295.08 730.195 295.08ZM730.137 290.356C728.809 290.356 727.971 289.286 727.971 287.551V287.542C727.971 285.833 728.809 284.762 730.137 284.762C731.416 284.762 732.287 285.849 732.287 287.551V287.559C732.287 289.269 731.424 290.356 730.137 290.356ZM739.442 294.905H741.509V290.514H741.551C742.049 291.543 743.053 292.174 744.307 292.174C746.515 292.174 747.926 290.431 747.926 287.609V287.601C747.926 284.762 746.515 283.019 744.282 283.019C743.02 283.019 742.057 283.666 741.551 284.72H741.509V283.201H739.442V294.905ZM743.667 290.431C742.389 290.431 741.493 289.327 741.493 287.609V287.601C741.493 285.874 742.389 284.762 743.667 284.762C744.987 284.762 745.817 285.841 745.817 287.601V287.609C745.817 289.344 744.987 290.431 743.667 290.431ZM749.254 292H751.321V286.895C751.321 285.592 752.026 284.853 753.197 284.853C753.545 284.853 753.861 284.903 754.035 284.969V283.102C753.877 283.06 753.637 283.019 753.379 283.019C752.367 283.019 751.636 283.658 751.362 284.72H751.321V283.201H749.254V292ZM758.659 292.174C761.24 292.174 762.917 290.456 762.917 287.601V287.584C762.917 284.745 761.215 283.019 758.65 283.019C756.094 283.019 754.4 284.762 754.4 287.584V287.601C754.4 290.448 756.069 292.174 758.659 292.174ZM758.667 290.506C757.347 290.506 756.509 289.452 756.509 287.601V287.584C756.509 285.758 757.364 284.695 758.65 284.695C759.962 284.695 760.809 285.75 760.809 287.584V287.601C760.809 289.443 759.97 290.506 758.667 290.506ZM768.13 292.174C770.354 292.174 771.84 290.78 771.998 288.945L772.006 288.887H770.056L770.039 288.962C769.848 289.883 769.184 290.506 768.138 290.506C766.835 290.506 765.988 289.443 765.988 287.609V287.601C765.988 285.799 766.827 284.695 768.13 284.695C769.226 284.695 769.856 285.384 770.031 286.239L770.047 286.314H771.998L771.99 286.248C771.865 284.488 770.421 283.019 768.105 283.019C765.54 283.019 763.88 284.778 763.88 287.584V287.592C763.88 290.415 765.515 292.174 768.13 292.174ZM777.111 292.174C779.411 292.174 780.706 290.813 780.979 289.46L781.004 289.369H779.07L779.054 289.427C778.854 290.016 778.182 290.564 777.153 290.564C775.808 290.564 774.961 289.651 774.928 288.107H781.087V287.443C781.087 284.787 779.527 283.019 777.012 283.019C774.497 283.019 772.878 284.845 772.878 287.617V287.625C772.878 290.423 774.472 292.174 777.111 292.174ZM777.037 284.637C778.132 284.637 778.929 285.334 779.079 286.729H774.953C775.119 285.376 775.941 284.637 777.037 284.637ZM785.86 292.174C788.019 292.174 789.554 291.062 789.554 289.402V289.394C789.554 288.115 788.849 287.401 787.031 286.995L785.562 286.671C784.648 286.463 784.308 286.131 784.308 285.625V285.617C784.308 284.969 784.881 284.546 785.794 284.546C786.757 284.546 787.321 285.061 787.413 285.766L787.421 285.833H789.347L789.338 285.741C789.264 284.222 787.985 283.019 785.794 283.019C783.669 283.019 782.266 284.106 782.266 285.716V285.725C782.266 287.028 783.113 287.85 784.798 288.223L786.259 288.547C787.172 288.754 787.479 289.053 787.479 289.584V289.593C787.479 290.24 786.873 290.647 785.869 290.647C784.823 290.647 784.25 290.199 784.092 289.443L784.076 289.369H782.042L782.05 289.443C782.233 291.079 783.553 292.174 785.86 292.174ZM794.311 292.174C796.469 292.174 798.004 291.062 798.004 289.402V289.394C798.004 288.115 797.299 287.401 795.481 286.995L794.012 286.671C793.099 286.463 792.758 286.131 792.758 285.625V285.617C792.758 284.969 793.331 284.546 794.244 284.546C795.207 284.546 795.771 285.061 795.863 285.766L795.871 285.833H797.797L797.789 285.741C797.714 284.222 796.436 283.019 794.244 283.019C792.119 283.019 790.716 284.106 790.716 285.716V285.725C790.716 287.028 791.563 287.85 793.248 288.223L794.709 288.547C795.622 288.754 795.929 289.053 795.929 289.584V289.593C795.929 290.24 795.323 290.647 794.319 290.647C793.273 290.647 792.7 290.199 792.542 289.443L792.526 289.369H790.492L790.5 289.443C790.683 291.079 792.003 292.174 794.311 292.174Z" fill="black"/>
<rect x="1140" y="175" width="88" height="88" rx="44" fill="#D3FCFF"/>
<path d="M1178.99 217.754H1168.45C1167.73 217.754 1167.16 217.177 1167.16 216.465C1167.16 215.753 1167.73 215.176 1168.45 215.176L1184.2 215.098C1184.68 212.532 1186.69 210.499 1189.24 209.979V200.996C1189.24 200.284 1188.67 199.707 1187.95 199.707H1163.29C1162.58 199.707 1162 200.284 1162 200.996V231.848C1162 232.56 1162.58 233.137 1163.29 233.137H1178.76V226.558C1178.36 225.708 1178.16 224.776 1178.16 223.82V220.684C1178.16 219.61 1178.46 218.606 1178.99 217.754V217.754ZM1168.45 204.863H1182.8C1183.51 204.863 1184.09 205.441 1184.09 206.152C1184.09 206.864 1183.51 207.441 1182.8 207.441H1168.45C1167.73 207.441 1167.16 206.864 1167.16 206.152C1167.16 205.441 1167.73 204.863 1168.45 204.863V204.863ZM1168.45 210.02H1182.8C1183.51 210.02 1184.09 210.597 1184.09 211.309C1184.09 212.021 1183.51 212.598 1182.8 212.598H1168.45C1167.73 212.598 1167.16 212.021 1167.16 211.309C1167.16 210.597 1167.73 210.02 1168.45 210.02V210.02ZM1171.54 222.91H1168.45C1167.73 222.91 1167.16 222.333 1167.16 221.621C1167.16 220.909 1167.73 220.332 1168.45 220.332H1171.54C1172.25 220.332 1172.83 220.909 1172.83 221.621C1172.83 222.333 1172.25 222.91 1171.54 222.91Z" fill="#00E1F0"/>
<path d="M1192 229.441H1194.58V232.02H1192V229.441Z" fill="#00E1F0"/>
<path d="M1197.15 231.817V233.309C1197.15 234.02 1196.58 234.598 1195.86 234.598H1190.71C1190 234.598 1189.42 234.02 1189.42 233.309V231.838L1182.89 230.033C1182.33 229.88 1181.81 229.659 1181.34 229.384V234.769C1181.34 236.712 1182.92 238.293 1184.86 238.293H1201.87C1203.82 238.293 1205.4 236.712 1205.4 234.769V229.37C1204.91 229.653 1204.38 229.877 1203.8 230.03L1197.15 231.817Z" fill="#00E1F0"/>
<path d="M1186.95 215.098H1199.79C1199.21 213.684 1197.82 212.684 1196.2 212.684H1190.53C1188.91 212.684 1187.52 213.684 1186.95 215.098Z" fill="#00E1F0"/>
<path d="M1202.99 217.677H1183.74C1182.08 217.677 1180.73 219.026 1180.73 220.684V223.82C1180.73 225.581 1181.87 227.079 1183.57 227.548L1189.42 229.164V228.152C1189.42 227.44 1190 226.863 1190.71 226.863H1195.86C1196.58 226.863 1197.15 227.44 1197.15 228.152V229.147L1203.14 227.54C1204.85 227.08 1206 225.579 1206 223.805V220.684C1206 219.026 1204.65 217.677 1202.99 217.677V217.677Z" fill="#00E1F0"/>
<path d="M1123.57 292H1125.64L1128.05 283.409H1128.1L1130.52 292H1132.58L1135.8 280.022H1133.57L1131.49 289.062H1131.45L1129.05 280.022H1127.11L1124.71 289.062H1124.67L1122.58 280.022H1120.36L1123.57 292ZM1139.91 292.174C1142.2 292.174 1143.5 290.813 1143.77 289.46L1143.8 289.369H1141.86L1141.85 289.427C1141.65 290.016 1140.98 290.564 1139.95 290.564C1138.6 290.564 1137.76 289.651 1137.72 288.107H1143.88V287.443C1143.88 284.787 1142.32 283.019 1139.81 283.019C1137.29 283.019 1135.67 284.845 1135.67 287.617V287.625C1135.67 290.423 1137.27 292.174 1139.91 292.174ZM1139.83 284.637C1140.93 284.637 1141.72 285.334 1141.87 286.729H1137.75C1137.91 285.376 1138.73 284.637 1139.83 284.637ZM1148.68 292H1150.75V286.928C1150.75 285.65 1151.51 284.762 1152.68 284.762C1153.87 284.762 1154.55 285.575 1154.55 286.928V292H1156.61V286.521C1156.61 284.396 1155.4 283.019 1153.51 283.019C1152.19 283.019 1151.25 283.625 1150.8 284.679H1150.75V280.022H1148.68V292ZM1159.38 281.939C1160.03 281.939 1160.52 281.425 1160.52 280.811C1160.52 280.18 1160.03 279.673 1159.38 279.673C1158.73 279.673 1158.23 280.18 1158.23 280.811C1158.23 281.425 1158.73 281.939 1159.38 281.939ZM1158.34 292H1160.41V283.201H1158.34V292ZM1162.17 292H1164.23V286.895C1164.23 285.592 1164.94 284.853 1166.11 284.853C1166.46 284.853 1166.77 284.903 1166.95 284.969V283.102C1166.79 283.06 1166.55 283.019 1166.29 283.019C1165.28 283.019 1164.55 283.658 1164.28 284.72H1164.23V283.201H1162.17V292ZM1171.55 292.174C1173.85 292.174 1175.14 290.813 1175.42 289.46L1175.44 289.369H1173.51L1173.49 289.427C1173.29 290.016 1172.62 290.564 1171.59 290.564C1170.24 290.564 1169.4 289.651 1169.36 288.107H1175.52V287.443C1175.52 284.787 1173.96 283.019 1171.45 283.019C1168.93 283.019 1167.31 284.845 1167.31 287.617V287.625C1167.31 290.423 1168.91 292.174 1171.55 292.174ZM1171.47 284.637C1172.57 284.637 1173.37 285.334 1173.52 286.729H1169.39C1169.56 285.376 1170.38 284.637 1171.47 284.637ZM1183.53 292.174C1183.95 292.174 1184.31 292.133 1184.56 292.1V290.547C1184.41 290.556 1184.26 290.581 1184.06 290.581C1183.3 290.581 1182.92 290.307 1182.92 289.443V284.795H1184.56V283.201H1182.92V280.968H1180.82V283.201H1179.57V284.795H1180.82V289.618C1180.82 291.427 1181.69 292.174 1183.53 292.174ZM1189.7 292.174C1192.28 292.174 1193.96 290.456 1193.96 287.601V287.584C1193.96 284.745 1192.26 283.019 1189.69 283.019C1187.14 283.019 1185.44 284.762 1185.44 287.584V287.601C1185.44 290.448 1187.11 292.174 1189.7 292.174ZM1189.71 290.506C1188.39 290.506 1187.55 289.452 1187.55 287.601V287.584C1187.55 285.758 1188.41 284.695 1189.69 284.695C1191 284.695 1191.85 285.75 1191.85 287.584V287.601C1191.85 289.443 1191.01 290.506 1189.71 290.506ZM1195.29 294.905H1197.35V290.514H1197.4C1197.89 291.543 1198.9 292.174 1200.15 292.174C1202.36 292.174 1203.77 290.431 1203.77 287.609V287.601C1203.77 284.762 1202.36 283.019 1200.13 283.019C1198.87 283.019 1197.9 283.666 1197.4 284.72H1197.35V283.201H1195.29V294.905ZM1199.51 290.431C1198.23 290.431 1197.34 289.327 1197.34 287.609V287.601C1197.34 285.874 1198.23 284.762 1199.51 284.762C1200.83 284.762 1201.66 285.841 1201.66 287.601V287.609C1201.66 289.344 1200.83 290.431 1199.51 290.431ZM1124.28 314.174C1126.44 314.174 1127.98 313.062 1127.98 311.402V311.394C1127.98 310.115 1127.27 309.401 1125.45 308.995L1123.98 308.671C1123.07 308.463 1122.73 308.131 1122.73 307.625V307.617C1122.73 306.969 1123.3 306.546 1124.22 306.546C1125.18 306.546 1125.74 307.061 1125.84 307.766L1125.84 307.833H1127.77L1127.76 307.741C1127.69 306.222 1126.41 305.019 1124.22 305.019C1122.09 305.019 1120.69 306.106 1120.69 307.716V307.725C1120.69 309.028 1121.54 309.85 1123.22 310.223L1124.68 310.547C1125.59 310.754 1125.9 311.053 1125.9 311.584V311.593C1125.9 312.24 1125.3 312.647 1124.29 312.647C1123.25 312.647 1122.67 312.199 1122.52 311.443L1122.5 311.369H1120.46L1120.47 311.443C1120.66 313.079 1121.98 314.174 1124.28 314.174ZM1132.57 314.174C1132.98 314.174 1133.35 314.133 1133.59 314.1V312.547C1133.45 312.556 1133.29 312.581 1133.09 312.581C1132.33 312.581 1131.95 312.307 1131.95 311.443V306.795H1133.59V305.201H1131.95V302.968H1129.85V305.201H1128.61V306.795H1129.85V311.618C1129.85 313.427 1130.72 314.174 1132.57 314.174ZM1138 314.174C1139.33 314.174 1140.24 313.56 1140.69 312.622H1140.74V314H1142.8V305.201H1140.74V310.298C1140.74 311.576 1139.98 312.431 1138.79 312.431C1137.61 312.431 1137.03 311.726 1137.03 310.48V305.201H1134.97V310.887C1134.97 312.929 1136.07 314.174 1138 314.174ZM1147.77 314.174C1149.04 314.174 1150.02 313.543 1150.51 312.506H1150.56V314H1152.63V302.022H1150.56V306.712H1150.51C1150.02 305.658 1149.01 305.019 1147.77 305.019C1145.56 305.019 1144.14 306.753 1144.14 309.592V309.601C1144.14 312.431 1145.55 314.174 1147.77 314.174ZM1148.4 312.431C1147.07 312.431 1146.25 311.352 1146.25 309.601V309.592C1146.25 307.841 1147.08 306.762 1148.4 306.762C1149.67 306.762 1150.56 307.874 1150.56 309.592V309.601C1150.56 311.327 1149.68 312.431 1148.4 312.431ZM1158.23 314.174C1160.53 314.174 1161.83 312.813 1162.1 311.46L1162.13 311.369H1160.19L1160.18 311.427C1159.98 312.016 1159.3 312.564 1158.27 312.564C1156.93 312.564 1156.08 311.651 1156.05 310.107H1162.21V309.443C1162.21 306.787 1160.65 305.019 1158.13 305.019C1155.62 305.019 1154 306.845 1154 309.617V309.625C1154 312.423 1155.59 314.174 1158.23 314.174ZM1158.16 306.637C1159.25 306.637 1160.05 307.334 1160.2 308.729H1156.08C1156.24 307.376 1157.06 306.637 1158.16 306.637ZM1163.55 314H1165.61V308.895C1165.61 307.625 1166.37 306.762 1167.56 306.762C1168.73 306.762 1169.31 307.467 1169.31 308.721V314H1171.38V308.306C1171.38 306.264 1170.28 305.019 1168.34 305.019C1167.01 305.019 1166.11 305.633 1165.65 306.579H1165.61V305.201H1163.55V314ZM1176.31 314.174C1176.73 314.174 1177.09 314.133 1177.33 314.1V312.547C1177.19 312.556 1177.03 312.581 1176.84 312.581C1176.08 312.581 1175.7 312.307 1175.7 311.443V306.795H1177.33V305.201H1175.7V302.968H1173.6V305.201H1172.35V306.795H1173.6V311.618C1173.6 313.427 1174.47 314.174 1176.31 314.174ZM1182.19 314.174C1184.35 314.174 1185.88 313.062 1185.88 311.402V311.394C1185.88 310.115 1185.18 309.401 1183.36 308.995L1181.89 308.671C1180.98 308.463 1180.64 308.131 1180.64 307.625V307.617C1180.64 306.969 1181.21 306.546 1182.12 306.546C1183.09 306.546 1183.65 307.061 1183.74 307.766L1183.75 307.833H1185.68L1185.67 307.741C1185.59 306.222 1184.31 305.019 1182.12 305.019C1180 305.019 1178.6 306.106 1178.6 307.716V307.725C1178.6 309.028 1179.44 309.85 1181.13 310.223L1182.59 310.547C1183.5 310.754 1183.81 311.053 1183.81 311.584V311.593C1183.81 312.24 1183.2 312.647 1182.2 312.647C1181.15 312.647 1180.58 312.199 1180.42 311.443L1180.4 311.369H1178.37L1178.38 311.443C1178.56 313.079 1179.88 314.174 1182.19 314.174ZM1193.88 314.174C1194.29 314.174 1194.66 314.133 1194.9 314.1V312.547C1194.76 312.556 1194.6 312.581 1194.4 312.581C1193.64 312.581 1193.26 312.307 1193.26 311.443V306.795H1194.9V305.201H1193.26V302.968H1191.16V305.201H1189.92V306.795H1191.16V311.618C1191.16 313.427 1192.03 314.174 1193.88 314.174ZM1200.04 314.174C1202.63 314.174 1204.3 312.456 1204.3 309.601V309.584C1204.3 306.745 1202.6 305.019 1200.04 305.019C1197.48 305.019 1195.79 306.762 1195.79 309.584V309.601C1195.79 312.448 1197.45 314.174 1200.04 314.174ZM1200.05 312.506C1198.73 312.506 1197.89 311.452 1197.89 309.601V309.584C1197.89 307.758 1198.75 306.695 1200.04 306.695C1201.35 306.695 1202.19 307.75 1202.19 309.584V309.601C1202.19 311.443 1201.36 312.506 1200.05 312.506ZM1210.75 314H1212.91L1214.64 307.567H1214.68L1216.41 314H1218.59L1220.97 305.201H1218.93L1217.44 311.958H1217.39L1215.67 305.201H1213.69L1211.97 311.958H1211.93L1210.45 305.201H1208.37L1210.75 314ZM1225.81 314.174C1228.39 314.174 1230.07 312.456 1230.07 309.601V309.584C1230.07 306.745 1228.37 305.019 1225.8 305.019C1223.25 305.019 1221.55 306.762 1221.55 309.584V309.601C1221.55 312.448 1223.22 314.174 1225.81 314.174ZM1225.82 312.506C1224.5 312.506 1223.66 311.452 1223.66 309.601V309.584C1223.66 307.758 1224.52 306.695 1225.8 306.695C1227.11 306.695 1227.96 307.75 1227.96 309.584V309.601C1227.96 311.443 1227.12 312.506 1225.82 312.506ZM1231.4 314H1233.46V308.895C1233.46 307.592 1234.17 306.853 1235.34 306.853C1235.69 306.853 1236 306.903 1236.18 306.969V305.102C1236.02 305.06 1235.78 305.019 1235.52 305.019C1234.51 305.019 1233.78 305.658 1233.5 306.72H1233.46V305.201H1231.4V314ZM1237.33 314H1239.4V310.945L1240.1 310.215L1242.88 314H1245.26L1241.63 308.986L1245.12 305.201H1242.73L1239.44 308.854H1239.4V302.022H1237.33V314Z" fill="black"/>
<defs>
<filter id="filter0_b_2010_12473" x="-80" y="-100" width="288" height="288" filterUnits="userSpaceOnUse" color-interpolation-filters="sRGB">
<feFlood flood-opacity="0" result="BackgroundImageFix"/>
<feGaussianBlur in="BackgroundImage" stdDeviation="50"/>
<feComposite in2="SourceAlpha" operator="in" result="effect1_backgroundBlur_2010_12473"/>
<feBlend mode="normal" in="SourceGraphic" in2="effect1_backgroundBlur_2010_12473" result="shape"/>
</filter>
<filter id="filter1_b_2010_12473" x="352" y="-100" width="288" height="288" filterUnits="userSpaceOnUse" color-interpolation-filters="sRGB">
<feFlood flood-opacity="0" result="BackgroundImageFix"/>
<feGaussianBlur in="BackgroundImage" stdDeviation="50"/>
<feComposite in2="SourceAlpha" operator="in" result="effect1_backgroundBlur_2010_12473"/>
<feBlend mode="normal" in="SourceGraphic" in2="effect1_backgroundBlur_2010_12473" result="shape"/>
</filter>
<filter id="filter2_b_2010_12473" x="129" y="75" width="288" height="288" filterUnits="userSpaceOnUse" color-interpolation-filters="sRGB">
<feFlood flood-opacity="0" result="BackgroundImageFix"/>
<feGaussianBlur in="BackgroundImage" stdDeviation="50"/>
<feComposite in2="SourceAlpha" operator="in" result="effect1_backgroundBlur_2010_12473"/>
<feBlend mode="normal" in="SourceGraphic" in2="effect1_backgroundBlur_2010_12473" result="shape"/>
</filter>
<clipPath id="clip0_2010_12473">
<rect width="44" height="44" fill="white" transform="translate(42 22)"/>
</clipPath>
<clipPath id="clip1_2010_12473">
<rect width="44" height="44" fill="white" transform="translate(251 197)"/>
</clipPath>
</defs>
</svg>
