<svg width="1248" height="305" viewBox="0 0 1248 305" fill="none" xmlns="http://www.w3.org/2000/svg">
<path d="M70.5 125.478C70.5 125.478 91.6722 206.005 237.953 237.656C463 286.35 446.5 57.0125 618.914 57.0125C819.5 57.0125 738 205.978 972 237.656" stroke="#D4D5D7" stroke-width="3" stroke-dasharray="8 8"/>
<path d="M1167.42 155.487C1167.15 154.704 1166.29 154.289 1165.51 154.56L1152.75 158.973C1151.97 159.244 1151.55 160.099 1151.82 160.881C1152.1 161.664 1152.95 162.079 1153.73 161.809L1165.07 157.886L1169 169.226C1169.27 170.009 1170.12 170.424 1170.9 170.153C1171.69 169.882 1172.1 169.028 1171.83 168.245L1167.42 155.487ZM969.948 235.227C972.047 235.299 974.125 235.356 976.183 235.397L976.242 232.397C974.2 232.357 972.136 232.301 970.052 232.229L969.948 235.227ZM988.478 235.455C992.665 235.411 996.762 235.3 1000.77 235.126L1000.64 232.129C996.665 232.301 992.601 232.411 988.446 232.456L988.478 235.455ZM1013.05 234.381C1017.24 234.052 1021.33 233.653 1025.31 233.189L1024.97 230.209C1021.02 230.669 1016.97 231.064 1012.82 231.39L1013.05 234.381ZM1037.53 231.517C1041.7 230.859 1045.75 230.128 1049.67 229.331L1049.08 226.391C1045.19 227.179 1041.19 227.902 1037.06 228.554L1037.53 231.517ZM1061.7 226.599C1065.81 225.565 1069.76 224.458 1073.58 223.289L1072.7 220.421C1068.93 221.575 1065.02 222.668 1060.97 223.69L1061.7 226.599ZM1085.24 219.37C1089.25 217.899 1093.09 216.36 1096.75 214.769L1095.55 212.017C1091.94 213.586 1088.16 215.103 1084.21 216.553L1085.24 219.37ZM1107.89 209.515C1111.72 207.556 1115.33 205.547 1118.73 203.511L1117.19 200.937C1113.85 202.939 1110.3 204.915 1106.52 206.843L1107.89 209.515ZM1129.11 196.785C1132.68 194.28 1135.96 191.771 1138.96 189.299L1137.06 186.983C1134.11 189.407 1130.9 191.869 1127.39 194.329L1129.11 196.785ZM1148.19 181.029C1151.48 177.816 1154.29 174.76 1156.65 171.966L1154.36 170.028C1152.06 172.753 1149.32 175.739 1146.1 178.882L1148.19 181.029ZM1164.13 162.055C1165.23 160.378 1166.03 159.036 1166.56 158.106C1166.82 157.641 1167.02 157.28 1167.15 157.031C1167.21 156.907 1167.26 156.811 1167.29 156.744C1167.31 156.71 1167.32 156.684 1167.33 156.666C1167.34 156.657 1167.34 156.649 1167.34 156.644C1167.35 156.641 1167.35 156.639 1167.35 156.637C1167.35 156.636 1167.35 156.635 1167.35 156.635C1167.35 156.634 1167.35 156.634 1167.35 156.634C1167.35 156.634 1167.35 156.634 1167.35 156.633C1167.35 156.633 1167.35 156.633 1166 155.978C1164.65 155.322 1164.65 155.322 1164.65 155.322C1164.65 155.322 1164.65 155.321 1164.65 155.321C1164.65 155.321 1164.65 155.321 1164.65 155.321C1164.65 155.321 1164.65 155.321 1164.65 155.321C1164.65 155.321 1164.65 155.322 1164.65 155.323C1164.65 155.325 1164.65 155.329 1164.64 155.335C1164.64 155.346 1164.63 155.366 1164.62 155.392C1164.59 155.446 1164.55 155.528 1164.49 155.639C1164.37 155.86 1164.19 156.193 1163.95 156.63C1163.45 157.503 1162.69 158.786 1161.62 160.403L1164.13 162.055Z" fill="#D4D5D7"/>
<g filter="url(#filter0_b_1593_16331)">
<rect y="0.977539" width="88" height="88" rx="44" fill="#DED9FF" fill-opacity="0.56"/>
<g clip-path="url(#clip0_1593_16331)">
<path d="M49.3432 45.1543H46.2452C45.8444 45.1543 45.5195 45.4792 45.5195 45.88C45.5195 46.2807 45.8444 46.6057 46.2452 46.6057H49.6912C49.4592 46.137 49.348 45.6462 49.3432 45.1543Z" fill="#4C34DE"/>
<path d="M65.6552 34.6632C65.6552 33.1203 64.4857 31.8693 63.043 31.8693H58.3845C56.9418 31.8693 55.7722 33.1201 55.7722 34.6632V40.3312L56.4633 40.0654L59.0654 34.9992L57.6433 41.3793L52.0944 43.5135C51.2065 43.8551 50.7671 44.8503 51.1072 45.7347C51.4441 46.6106 52.4347 47.0657 53.3283 46.7218L59.7373 44.2568C60.2727 44.0508 60.6722 43.59 60.7979 43.0266L62.3684 35.9813L62.4477 43.008C62.4561 43.7493 61.8534 45.2106 60.3296 45.7968C60.204 45.8451 55.8326 47.5265 55.7193 47.57V64.718C55.7193 65.9205 56.6941 66.8952 57.8964 66.8952C59.0989 66.8952 60.0736 65.9205 60.0736 64.718V48.9975H61.3129V64.718C61.3129 65.9205 62.2877 66.8952 63.49 66.8952C64.6924 66.8952 65.6672 65.9205 65.6672 64.718C65.6675 45.6611 65.6552 34.7199 65.6552 34.6632Z" fill="#4C34DE"/>
<path d="M60.6929 30.7111C62.8285 30.7111 64.5597 28.9798 64.5597 26.8443C64.5597 24.7087 62.8285 22.9775 60.6929 22.9775C58.5574 22.9775 56.8262 24.7087 56.8262 26.8443C56.8262 28.9798 58.5574 30.7111 60.6929 30.7111Z" fill="#4C34DE"/>
<path d="M35.685 37.6634C37.8226 37.6634 39.5555 35.9305 39.5555 33.7929C39.5555 31.6553 37.8226 29.9224 35.685 29.9224C33.5474 29.9224 31.8145 31.6553 31.8145 33.7929C31.8145 35.9305 33.5474 37.6634 35.685 37.6634Z" fill="#4C34DE"/>
<path d="M49.5472 47.7759H40.461L43.3875 46.8347C44.3093 46.5383 44.8163 45.5505 44.5199 44.6286C44.2234 43.7067 43.2357 43.1998 42.3137 43.4962L41.9192 43.623L40.0701 40.564C39.8627 40.2211 39.4165 40.1109 39.0736 40.3184C38.7305 40.5257 38.6206 40.9719 38.828 41.3149L40.4993 44.0797L37.6205 45.0056L37.6679 41.988C37.6935 40.357 36.3835 39.0172 34.7529 39.0055L32.0518 38.9862C30.419 38.9745 29.09 40.2986 29.0944 41.9306L29.1217 51.8895C29.1254 53.248 30.0627 54.4357 31.4018 54.7429H27.7114L25.2089 42.0124C25.0543 41.2258 24.2913 40.7133 23.5048 40.8681C22.7182 41.0227 22.2059 41.7857 22.3605 42.5722L25.0933 56.4743C25.224 57.1392 25.7967 57.6215 26.4695 57.6437L23.6792 64.8786C23.487 65.3771 23.7352 65.9373 24.2339 66.1295C24.7323 66.3219 25.2925 66.0737 25.4848 65.5749L28.5428 57.6458H34.6519L36.4004 62.1794L35.6411 64.0986C35.2135 65.1792 35.7429 66.4019 36.8235 66.8294C37.9043 67.257 39.1268 66.7274 39.5543 65.6471L44.3308 53.5766C44.8765 52.1974 43.8588 50.6982 42.3743 50.6982H42.3682C41.685 50.7002 37.4802 50.7125 35.319 50.7188C34.0991 50.7223 33.065 49.8183 32.9092 48.6083L32.9087 48.6049L32.3751 44.3066L34.0809 48.1771C34.4431 48.9989 35.3674 49.4141 36.2224 49.1392L38.5488 48.3909C38.506 48.5003 38.4816 48.6189 38.4816 48.7435C38.4816 49.2784 38.9158 49.7112 39.4493 49.7112H49.5474C50.0816 49.7112 50.5148 49.2779 50.5148 48.7435C50.5148 48.2091 50.0816 47.7759 49.5472 47.7759ZM37.3743 54.921L39.2751 54.9155L37.4511 59.525L36.7254 57.6434C37.5047 57.618 38.1291 56.9798 38.1291 56.1943C38.129 55.6452 37.824 55.1677 37.3743 54.921ZM36.6526 45.317L35.247 42.1277L37.4805 45.0507L36.6526 45.317Z" fill="#4C34DE"/>
</g>
</g>
<path d="M9.3335 118.185C12.8364 118.185 15.0112 115.803 15.0112 111.993V111.976C15.0112 108.174 12.8281 105.792 9.3335 105.792C5.84717 105.792 3.64746 108.174 3.64746 111.976V111.993C3.64746 115.803 5.83057 118.185 9.3335 118.185ZM9.3335 116.326C7.19189 116.326 5.83057 114.657 5.83057 111.993V111.976C5.83057 109.312 7.2002 107.651 9.3335 107.651C11.4751 107.651 12.8364 109.32 12.8364 111.976V111.993C12.8364 114.632 11.5 116.326 9.3335 116.326ZM20.3984 118.152C22.623 118.152 24.1089 116.757 24.2666 114.923L24.2749 114.865H22.3242L22.3076 114.939C22.1167 115.861 21.4526 116.483 20.4067 116.483C19.1035 116.483 18.2568 115.421 18.2568 113.586V113.578C18.2568 111.777 19.0952 110.673 20.3984 110.673C21.4941 110.673 22.125 111.362 22.2993 112.217L22.3159 112.292H24.2666L24.2583 112.225C24.1338 110.465 22.6895 108.996 20.3735 108.996C17.8086 108.996 16.1484 110.756 16.1484 113.562V113.57C16.1484 116.392 17.7837 118.152 20.3984 118.152ZM25.5698 117.978H27.6367V112.906C27.6367 111.627 28.4004 110.739 29.5708 110.739C30.7578 110.739 31.4385 111.553 31.4385 112.906V117.978H33.5054V112.499C33.5054 110.374 32.2935 108.996 30.4009 108.996C29.0811 108.996 28.1431 109.602 27.6865 110.656H27.6367V106H25.5698V117.978ZM36.2695 107.917C36.917 107.917 37.415 107.402 37.415 106.788C37.415 106.157 36.917 105.651 36.2695 105.651C35.6221 105.651 35.1157 106.157 35.1157 106.788C35.1157 107.402 35.6221 107.917 36.2695 107.917ZM35.2319 117.978H37.2988V109.179H35.2319V117.978ZM45.1099 120.883H47.1768V109.179H45.1099V110.698H45.0601C44.562 109.677 43.5991 109.013 42.354 109.013C40.1294 109.013 38.6934 110.748 38.6934 113.562V113.57C38.6934 116.392 40.1128 118.144 42.3208 118.144C43.5825 118.144 44.5786 117.513 45.0684 116.517H45.1099V120.883ZM42.9683 116.4C41.6401 116.4 40.8018 115.321 40.8018 113.57V113.562C40.8018 111.835 41.6401 110.756 42.9683 110.756C44.2466 110.756 45.1182 111.852 45.1182 113.562V113.57C45.1182 115.296 44.2549 116.4 42.9683 116.4ZM55.5439 118.152C56.814 118.152 57.7852 117.521 58.2832 116.483H58.333V117.978H60.3999V106H58.333V110.689H58.2832C57.7852 109.635 56.7808 108.996 55.5356 108.996C53.3276 108.996 51.9082 110.731 51.9082 113.57V113.578C51.9082 116.409 53.3193 118.152 55.5439 118.152ZM56.1665 116.409C54.8384 116.409 54.0166 115.33 54.0166 113.578V113.57C54.0166 111.818 54.8467 110.739 56.1665 110.739C57.4365 110.739 58.333 111.852 58.333 113.57V113.578C58.333 115.305 57.4448 116.409 56.1665 116.409ZM64.7329 118.127C65.895 118.127 66.8745 117.546 67.3809 116.625H67.4307V117.978H69.4976V111.926C69.4976 110.158 68.0781 108.996 65.8784 108.996C63.6455 108.996 62.2925 110.167 62.168 111.727L62.1597 111.827H64.0771L64.0938 111.752C64.2266 111.104 64.8242 110.648 65.8037 110.648C66.8496 110.648 67.4307 111.188 67.4307 112.076V112.682L65.1313 112.823C62.998 112.956 61.7861 113.894 61.7861 115.454V115.471C61.7861 117.04 62.9731 118.127 64.7329 118.127ZM63.8447 115.388V115.379C63.8447 114.682 64.4009 114.242 65.4219 114.176L67.4307 114.051V114.715C67.4307 115.761 66.5342 116.55 65.3472 116.55C64.4424 116.55 63.8447 116.11 63.8447 115.388ZM71.166 117.978H73.2329V112.873C73.2329 111.569 73.9385 110.831 75.1089 110.831C75.4575 110.831 75.7729 110.88 75.9473 110.947V109.079C75.7896 109.038 75.5488 108.996 75.2915 108.996C74.2788 108.996 73.5483 109.635 73.2744 110.698H73.2329V109.179H71.166V117.978ZM80.4463 118.152C82.6045 118.152 84.1401 117.04 84.1401 115.379V115.371C84.1401 114.093 83.4346 113.379 81.6167 112.972L80.1475 112.648C79.2344 112.441 78.894 112.109 78.894 111.603V111.594C78.894 110.947 79.4668 110.523 80.3799 110.523C81.3428 110.523 81.9072 111.038 81.9985 111.744L82.0068 111.81H83.9326L83.9243 111.719C83.8496 110.2 82.5713 108.996 80.3799 108.996C78.2549 108.996 76.8521 110.083 76.8521 111.694V111.702C76.8521 113.005 77.6987 113.827 79.3838 114.201L80.8447 114.524C81.7578 114.732 82.0649 115.031 82.0649 115.562V115.57C82.0649 116.218 81.459 116.625 80.4546 116.625C79.4087 116.625 78.8359 116.176 78.6782 115.421L78.6616 115.346H76.6279L76.6362 115.421C76.8188 117.056 78.1387 118.152 80.4463 118.152Z" fill="black"/>
<g filter="url(#filter1_b_1593_16331)">
<rect x="242" y="182.978" width="88" height="88" rx="44" fill="#B9DDFF"/>
<g clip-path="url(#clip1_1593_16331)">
<path d="M284.721 220.273L276.297 217.324C276.297 220.016 276.274 219.997 276.359 220.251C276.475 220.616 276.752 220.919 277.123 221.061C286.302 224.592 285.657 224.383 286 224.383C286.339 224.383 285.686 224.596 294.876 221.061C295.368 220.872 295.703 220.399 295.703 219.858V217.465L287.223 220.292C286.409 220.563 285.529 220.556 284.721 220.273Z" fill="#1B5BF7"/>
<path d="M272.311 213.143C272.621 213.349 271.583 212.942 285.574 217.838C285.842 217.934 286.134 217.936 286.408 217.845C291.282 216.221 294.396 215.182 298.302 213.88V221.152C298.302 221.508 298.447 221.831 298.681 222.064C299.489 222.872 300.881 222.297 300.881 221.152C300.881 212.361 300.879 212.162 300.879 212.163C300.917 211.613 300.571 211.059 299.999 210.868C286.234 206.28 286.306 206.272 286 206.272C285.683 206.272 285.775 206.275 272.63 210.874C271.65 211.217 271.455 212.532 272.311 213.143Z" fill="#1B5BF7"/>
<path d="M271.756 233.44H274.355V236.038H271.756V233.44Z" fill="#1B5BF7"/>
<path d="M306.711 212.091H303.46V221.152C303.46 223.286 301.724 225.02 299.592 225.02C298.219 225.02 297.011 224.302 296.324 223.221C295.969 223.423 296.559 223.177 287.389 226.704C286.511 227.042 285.522 227.054 284.611 226.704L276.197 223.468C274.703 222.893 273.718 221.46 273.718 219.858V216.422L271.778 215.742C270.228 215.2 269.188 213.733 269.188 212.091H265.289C264.578 212.091 264 212.669 264 213.381V241.216C264 241.928 264.578 242.506 265.289 242.506H276.944V245.104H273.056C272.344 245.104 271.766 245.682 271.766 246.394C271.766 247.106 272.344 247.683 273.056 247.683H298.944C299.656 247.683 300.234 247.106 300.234 246.394C300.234 245.682 299.656 245.104 298.944 245.104H295.056V242.506H306.711C307.422 242.506 308 241.928 308 241.216V213.381C308 212.669 307.422 212.091 306.711 212.091ZM276.934 237.328C276.934 238.04 276.356 238.617 275.645 238.617H270.467C269.755 238.617 269.177 238.04 269.177 237.328V232.15C269.177 231.438 269.755 230.861 270.467 230.861H275.645C276.356 230.861 276.934 231.438 276.934 232.15V237.328ZM301.533 238.617H280.822C280.11 238.617 279.533 238.04 279.533 237.328C279.533 236.616 280.11 236.038 280.822 236.038H301.533C302.245 236.038 302.823 236.616 302.823 237.328C302.823 238.04 302.245 238.617 301.533 238.617ZM301.533 233.44H280.822C280.11 233.44 279.533 232.862 279.533 232.15C279.533 231.438 280.11 230.861 280.822 230.861H301.533C302.245 230.861 302.823 231.438 302.823 232.15C302.823 232.862 302.245 233.44 301.533 233.44Z" fill="#1B5BF7"/>
</g>
</g>
<path d="M244.554 299.978H246.696V295.088H251.718V293.345H246.696V289.801H252.191V288H244.554V299.978ZM257.155 300.152C259.736 300.152 261.413 298.434 261.413 295.578V295.562C261.413 292.723 259.711 290.996 257.146 290.996C254.59 290.996 252.896 292.739 252.896 295.562V295.578C252.896 298.425 254.565 300.152 257.155 300.152ZM257.163 298.483C255.843 298.483 255.005 297.429 255.005 295.578V295.562C255.005 293.735 255.86 292.673 257.146 292.673C258.458 292.673 259.305 293.727 259.305 295.562V295.578C259.305 297.421 258.466 298.483 257.163 298.483ZM265.738 300.152C267.066 300.152 267.971 299.538 268.427 298.6H268.469V299.978H270.536V291.179H268.469V296.275C268.469 297.554 267.713 298.409 266.526 298.409C265.348 298.409 264.767 297.703 264.767 296.458V291.179H262.7V296.865C262.7 298.907 263.804 300.152 265.738 300.152ZM272.237 299.978H274.304V294.873C274.304 293.603 275.06 292.739 276.247 292.739C277.425 292.739 278.006 293.445 278.006 294.698V299.978H280.073V294.283C280.073 292.241 278.969 290.996 277.035 290.996C275.699 290.996 274.802 291.61 274.346 292.557H274.304V291.179H272.237V299.978ZM285.004 300.152C286.274 300.152 287.245 299.521 287.743 298.483H287.793V299.978H289.86V288H287.793V292.689H287.743C287.245 291.635 286.241 290.996 284.996 290.996C282.788 290.996 281.368 292.731 281.368 295.57V295.578C281.368 298.409 282.779 300.152 285.004 300.152ZM285.626 298.409C284.298 298.409 283.477 297.33 283.477 295.578V295.57C283.477 293.818 284.307 292.739 285.626 292.739C286.896 292.739 287.793 293.852 287.793 295.57V295.578C287.793 297.305 286.905 298.409 285.626 298.409ZM294.193 300.127C295.355 300.127 296.334 299.546 296.841 298.625H296.891V299.978H298.958V293.926C298.958 292.158 297.538 290.996 295.338 290.996C293.105 290.996 291.752 292.167 291.628 293.727L291.62 293.827H293.537L293.554 293.752C293.687 293.104 294.284 292.648 295.264 292.648C296.31 292.648 296.891 293.188 296.891 294.076V294.682L294.591 294.823C292.458 294.956 291.246 295.894 291.246 297.454V297.471C291.246 299.04 292.433 300.127 294.193 300.127ZM293.305 297.388V297.379C293.305 296.682 293.861 296.242 294.882 296.176L296.891 296.051V296.715C296.891 297.761 295.994 298.55 294.807 298.55C293.902 298.55 293.305 298.11 293.305 297.388ZM303.896 300.152C304.312 300.152 304.677 300.11 304.917 300.077V298.525C304.776 298.533 304.619 298.558 304.419 298.558C303.664 298.558 303.282 298.284 303.282 297.421V292.772H304.917V291.179H303.282V288.946H301.182V291.179H299.937V292.772H301.182V297.595C301.182 299.405 302.054 300.152 303.896 300.152ZM307.433 289.917C308.08 289.917 308.578 289.402 308.578 288.788C308.578 288.157 308.08 287.651 307.433 287.651C306.785 287.651 306.279 288.157 306.279 288.788C306.279 289.402 306.785 289.917 307.433 289.917ZM306.395 299.978H308.462V291.179H306.395V299.978ZM314.115 300.152C316.696 300.152 318.373 298.434 318.373 295.578V295.562C318.373 292.723 316.671 290.996 314.106 290.996C311.55 290.996 309.856 292.739 309.856 295.562V295.578C309.856 298.425 311.525 300.152 314.115 300.152ZM314.123 298.483C312.803 298.483 311.965 297.429 311.965 295.578V295.562C311.965 293.735 312.82 292.673 314.106 292.673C315.418 292.673 316.265 293.727 316.265 295.562V295.578C316.265 297.421 315.426 298.483 314.123 298.483ZM319.701 299.978H321.768V294.873C321.768 293.603 322.523 292.739 323.71 292.739C324.889 292.739 325.47 293.445 325.47 294.698V299.978H327.537V294.283C327.537 292.241 326.433 290.996 324.499 290.996C323.163 290.996 322.266 291.61 321.81 292.557H321.768V291.179H319.701V299.978Z" fill="black"/>
<rect x="921" y="182.978" width="88" height="88" rx="44" fill="#D1FFE1"/>
<path d="M951.938 220.103H978.062V236.603H951.938V220.103Z" fill="#3DC06C"/>
<path d="M983.562 239.353H970.5V241.415C970.5 241.962 970.283 242.487 969.896 242.873C969.509 243.26 968.985 243.478 968.438 243.478H961.562C961.015 243.478 960.491 243.26 960.104 242.873C959.717 242.487 959.5 241.962 959.5 241.415V239.353H946.438C946.255 239.353 946.08 239.425 945.951 239.554C945.822 239.683 945.75 239.858 945.75 240.04V242.79C945.751 243.701 946.114 244.575 946.758 245.22C947.402 245.864 948.276 246.226 949.188 246.228H980.812C981.724 246.226 982.598 245.864 983.242 245.22C983.886 244.575 984.249 243.701 984.25 242.79V240.04C984.25 239.858 984.178 239.683 984.049 239.554C983.92 239.425 983.745 239.353 983.562 239.353Z" fill="#3DC06C"/>
<path d="M961.562 242.103H968.438C968.62 242.103 968.795 242.03 968.924 241.901C969.053 241.772 969.125 241.597 969.125 241.415V239.353H960.875V241.415C960.875 241.597 960.947 241.772 961.076 241.901C961.205 242.03 961.38 242.103 961.562 242.103Z" fill="#3DC06C"/>
<path d="M949.875 213.228C950.3 213.226 950.714 213.093 951.061 212.847C951.408 212.6 951.67 212.253 951.811 211.853H957.438V214.603H958.813V211.165C958.813 210.983 958.74 210.808 958.611 210.679C958.482 210.55 958.308 210.478 958.125 210.478H951.811C951.685 210.122 951.463 209.808 951.17 209.57C950.877 209.332 950.524 209.179 950.15 209.128C949.776 209.077 949.395 209.13 949.049 209.281C948.703 209.432 948.405 209.675 948.188 209.983C947.971 210.292 947.842 210.654 947.817 211.031C947.792 211.407 947.871 211.784 948.045 212.119C948.219 212.453 948.482 212.734 948.805 212.93C949.127 213.125 949.498 213.228 949.875 213.228Z" fill="#3DC06C"/>
<path d="M964.313 211.726V214.603H965.688V211.726C966.146 211.564 966.533 211.245 966.779 210.825C967.025 210.405 967.115 209.912 967.033 209.433C966.951 208.953 966.701 208.518 966.329 208.205C965.957 207.891 965.487 207.719 965 207.719C964.513 207.719 964.043 207.891 963.671 208.205C963.299 208.518 963.049 208.953 962.967 209.433C962.885 209.912 962.975 210.405 963.221 210.825C963.467 211.245 963.854 211.564 964.313 211.726Z" fill="#3DC06C"/>
<path d="M972.562 211.853H978.189C978.351 212.311 978.67 212.698 979.09 212.944C979.51 213.19 980.003 213.28 980.482 213.198C980.962 213.116 981.397 212.866 981.71 212.494C982.024 212.122 982.196 211.652 982.196 211.165C982.196 210.679 982.024 210.208 981.71 209.836C981.397 209.464 980.962 209.215 980.482 209.132C980.003 209.05 979.51 209.14 979.09 209.386C978.67 209.632 978.351 210.019 978.189 210.478H971.875C971.693 210.478 971.518 210.55 971.389 210.679C971.26 210.808 971.188 210.983 971.188 211.165V214.603H972.562V211.853Z" fill="#3DC06C"/>
<path d="M950.562 237.29V219.415C950.562 219.233 950.635 219.058 950.764 218.929C950.893 218.8 951.068 218.728 951.25 218.728H978.75C978.932 218.728 979.107 218.8 979.236 218.929C979.365 219.058 979.438 219.233 979.438 219.415V237.29C979.438 237.472 979.365 237.647 979.236 237.776C979.107 237.905 978.932 237.978 978.75 237.978H982.188V218.04C982.188 217.493 981.97 216.968 981.583 216.582C981.197 216.195 980.672 215.978 980.125 215.978H949.875C949.328 215.978 948.803 216.195 948.417 216.582C948.03 216.968 947.812 217.493 947.812 218.04V237.978H951.25C951.068 237.978 950.893 237.905 950.764 237.776C950.635 237.647 950.562 237.472 950.562 237.29Z" fill="#3DC06C"/>
<path d="M921.724 299.978H923.965L924.978 296.881H929.436L930.448 299.978H932.698L928.415 288H926.007L921.724 299.978ZM927.186 290.133H927.236L928.896 295.229H925.518L927.186 290.133ZM937.155 300.152C939.313 300.152 940.849 299.04 940.849 297.379V297.371C940.849 296.093 940.144 295.379 938.326 294.972L936.856 294.648C935.943 294.441 935.603 294.109 935.603 293.603V293.594C935.603 292.947 936.176 292.523 937.089 292.523C938.052 292.523 938.616 293.038 938.708 293.744L938.716 293.81H940.642L940.633 293.719C940.559 292.2 939.28 290.996 937.089 290.996C934.964 290.996 933.561 292.083 933.561 293.694V293.702C933.561 295.005 934.408 295.827 936.093 296.201L937.554 296.524C938.467 296.732 938.774 297.031 938.774 297.562V297.57C938.774 298.218 938.168 298.625 937.164 298.625C936.118 298.625 935.545 298.176 935.387 297.421L935.371 297.346H933.337L933.345 297.421C933.528 299.056 934.848 300.152 937.155 300.152ZM946.062 300.152C948.644 300.152 950.32 298.434 950.32 295.578V295.562C950.32 292.723 948.619 290.996 946.054 290.996C943.497 290.996 941.804 292.739 941.804 295.562V295.578C941.804 298.425 943.472 300.152 946.062 300.152ZM946.07 298.483C944.75 298.483 943.912 297.429 943.912 295.578V295.562C943.912 293.735 944.767 292.673 946.054 292.673C947.365 292.673 948.212 293.727 948.212 295.562V295.578C948.212 297.421 947.374 298.483 946.07 298.483ZM955.085 300.152C957.243 300.152 958.779 299.04 958.779 297.379V297.371C958.779 296.093 958.073 295.379 956.255 294.972L954.786 294.648C953.873 294.441 953.533 294.109 953.533 293.603V293.594C953.533 292.947 954.105 292.523 955.019 292.523C955.981 292.523 956.546 293.038 956.637 293.744L956.646 293.81H958.571L958.563 293.719C958.488 292.2 957.21 290.996 955.019 290.996C952.894 290.996 951.491 292.083 951.491 293.694V293.702C951.491 295.005 952.337 295.827 954.022 296.201L955.483 296.524C956.396 296.732 956.704 297.031 956.704 297.562V297.57C956.704 298.218 956.098 298.625 955.093 298.625C954.047 298.625 953.475 298.176 953.317 297.421L953.3 297.346H951.267L951.275 297.421C951.458 299.056 952.777 300.152 955.085 300.152ZM961.194 289.917C961.842 289.917 962.34 289.402 962.34 288.788C962.34 288.157 961.842 287.651 961.194 287.651C960.547 287.651 960.041 288.157 960.041 288.788C960.041 289.402 960.547 289.917 961.194 289.917ZM960.157 299.978H962.224V291.179H960.157V299.978ZM965.162 302.899C966.997 302.899 968.026 302.21 968.698 300.276L971.861 291.179H969.686L967.619 298.218H967.561L965.502 291.179H963.245L966.407 299.986L966.283 300.343C966.017 301.082 965.577 301.306 964.789 301.306C964.498 301.306 964.257 301.264 964.1 301.231V302.808C964.349 302.85 964.764 302.899 965.162 302.899ZM976.31 299.978H978.377V296.923L979.074 296.192L981.855 299.978H984.237L980.61 294.964L984.096 291.179H981.706L978.418 294.831H978.377V288H976.31V299.978ZM988.031 300.152C989.359 300.152 990.264 299.538 990.72 298.6H990.762V299.978H992.829V291.179H990.762V296.275C990.762 297.554 990.006 298.409 988.819 298.409C987.641 298.409 987.06 297.703 987.06 296.458V291.179H984.993V296.865C984.993 298.907 986.097 300.152 988.031 300.152ZM994.53 299.978H996.597V294.873C996.597 293.569 997.303 292.831 998.473 292.831C998.822 292.831 999.137 292.88 999.312 292.947V291.079C999.154 291.038 998.913 290.996 998.656 290.996C997.643 290.996 996.913 291.635 996.639 292.698H996.597V291.179H994.53V299.978ZM1003.81 300.152C1005.97 300.152 1007.5 299.04 1007.5 297.379V297.371C1007.5 296.093 1006.8 295.379 1004.98 294.972L1003.51 294.648C1002.6 294.441 1002.26 294.109 1002.26 293.603V293.594C1002.26 292.947 1002.83 292.523 1003.74 292.523C1004.71 292.523 1005.27 293.038 1005.36 293.744L1005.37 293.81H1007.3L1007.29 293.719C1007.21 292.2 1005.94 290.996 1003.74 290.996C1001.62 290.996 1000.22 292.083 1000.22 293.694V293.702C1000.22 295.005 1001.06 295.827 1002.75 296.201L1004.21 296.524C1005.12 296.732 1005.43 297.031 1005.43 297.562V297.57C1005.43 298.218 1004.82 298.625 1003.82 298.625C1002.77 298.625 1002.2 298.176 1002.04 297.421L1002.03 297.346H999.992L1000 297.421C1000.18 299.056 1001.5 300.152 1003.81 300.152Z" fill="black"/>
<g filter="url(#filter2_b_1593_16331)">
<rect x="580" y="0.977539" width="88" height="88" rx="44" fill="#FFDCDB"/>
<path d="M644.969 35.0669C644.327 34.4549 643.484 34.1289 642.59 34.1508C641.698 34.1719 640.869 34.5375 640.257 35.18L639.568 35.9044L638.654 36.8645V27.6497C638.654 26.4476 637.674 25.4697 636.471 25.4697H604.18C602.978 25.4697 602 26.4476 602 27.6497V62.389C602 63.5924 602.978 64.5713 604.18 64.5713H636.471C637.675 64.5713 638.654 63.5924 638.654 62.389V46.5274L638.744 46.4328L644.395 40.5007C644.403 40.4923 644.41 40.4829 644.418 40.4742L645.082 39.7783C646.349 38.448 646.298 36.3348 644.969 35.0669ZM624.572 55.8923L624.765 55.4525L625.587 56.2347L625.169 56.4415C624.947 56.5395 624.75 56.5281 624.629 56.4099C624.534 56.3166 624.47 56.1306 624.572 55.8923ZM626.826 55.621L625.319 54.187L626.158 52.2732L628.699 54.6939L626.826 55.621ZM637.804 45.5371L629.797 53.9459L626.853 51.1412L627.599 50.358C627.607 50.3496 627.616 50.3406 627.624 50.3315L638.462 38.9492C638.464 38.9475 638.465 38.9458 638.467 38.9438L640.061 37.2704L643.006 40.0751L637.804 45.5371ZM644.142 38.8824L643.901 39.1338L640.956 36.3294L641.197 36.0756C641.57 35.6845 642.075 35.4623 642.621 35.4492C643.167 35.4368 643.682 35.6345 644.072 36.0071C644.884 36.7806 644.915 38.0707 644.142 38.8824Z" fill="#FF4B4B"/>
<path d="M633.31 33.276H633.327C633.686 33.276 633.976 32.9853 633.976 32.6268C633.976 32.2682 633.686 31.9775 633.327 31.9775H633.31C632.951 31.9775 632.661 32.2682 632.661 32.6268C632.661 32.9853 632.951 33.276 633.31 33.276Z" fill="#FCF0F1"/>
<path d="M630.553 33.276H630.57C630.929 33.276 631.219 32.9853 631.219 32.6268C631.219 32.2682 630.929 31.9775 630.57 31.9775H630.553C630.195 31.9775 629.904 32.2682 629.904 32.6268C629.904 32.9853 630.195 33.276 630.553 33.276Z" fill="#FCF0F1"/>
<path d="M627.797 33.2881H627.813C628.172 33.2881 628.463 32.9973 628.463 32.6388C628.463 32.28 628.172 31.9893 627.813 31.9893H627.797C627.438 31.9893 627.147 32.28 627.147 32.6388C627.147 32.9973 627.438 33.2881 627.797 33.2881Z" fill="#FCF0F1"/>
<path d="M622.362 32.6388C622.362 32.28 622.071 31.9893 621.712 31.9893H607.65C607.291 31.9893 607 32.28 607 32.6388C607 32.9973 607.291 33.2881 607.65 33.2881H621.712C622.071 33.2881 622.362 32.9973 622.362 32.6388Z" fill="#FCF0F1"/>
<path d="M607.799 44.0771H609.627C609.775 44.0771 609.899 44.0284 609.998 43.9314C610.097 43.8344 610.147 43.7169 610.147 43.5783C610.147 43.5044 610.133 43.4376 610.105 43.3775C610.078 43.3174 610.041 43.2644 609.995 43.2181C609.888 43.1167 609.766 43.0657 609.627 43.0657H608.353V42.0754H609.468C609.62 42.0754 609.746 42.0257 609.846 41.9263C609.945 41.827 609.995 41.7081 609.995 41.5695C609.995 41.4355 609.944 41.3181 609.842 41.2163C609.74 41.115 609.616 41.0639 609.468 41.0639H608.346V40.1082H609.593C609.727 40.1082 609.845 40.0572 609.946 39.9558C610.043 39.845 610.092 39.7225 610.092 39.5886C610.092 39.4503 610.043 39.3314 609.946 39.2321C609.849 39.1327 609.731 39.083 609.593 39.083H607.792C607.635 39.083 607.501 39.1407 607.39 39.2562C607.279 39.3717 607.224 39.5056 607.224 39.6581V43.5088C607.224 43.6706 607.279 43.8055 607.39 43.914C607.501 44.0227 607.637 44.0771 607.799 44.0771Z" fill="#FDF0F1"/>
<path d="M611.605 44.1318C611.789 44.1318 611.944 44.0418 612.069 43.8619L613.163 42.3311L614.251 43.8619C614.389 44.0418 614.546 44.1318 614.722 44.1318C614.805 44.1318 614.879 44.118 614.943 44.0905C615.008 44.0626 615.068 44.0237 615.124 43.9727C615.234 43.8619 615.29 43.735 615.29 43.5916C615.29 43.4533 615.248 43.3285 615.165 43.2177L613.814 41.3962L614.915 39.9346C614.999 39.8148 615.04 39.6946 615.04 39.5744C615.04 39.422 614.983 39.2917 614.867 39.1833C614.752 39.0749 614.62 39.0205 614.472 39.0205C614.283 39.0205 614.121 39.1175 613.988 39.3112L613.163 40.4888L612.339 39.3112C612.2 39.1175 612.039 39.0205 611.854 39.0205C611.697 39.0205 611.563 39.0759 611.452 39.1867C611.341 39.2975 611.286 39.4267 611.286 39.5744C611.286 39.713 611.325 39.8332 611.404 39.9346L612.512 41.3962L611.154 43.2177C611.071 43.3285 611.03 43.4533 611.03 43.5916C611.03 43.7397 611.087 43.8666 611.203 43.9727C611.318 44.0787 611.452 44.1318 611.605 44.1318Z" fill="#FDF0F1"/>
<path d="M616.583 44.1529C616.865 44.1529 617.045 44.024 617.124 43.7652L617.31 43.1348H619.229L619.43 43.7652C619.518 44.0193 619.689 44.1462 619.942 44.1462C620.095 44.1462 620.224 44.0999 620.33 44.0076C620.441 43.9015 620.497 43.7884 620.497 43.6682C620.497 43.5483 620.478 43.4372 620.441 43.3358L619.084 39.6439C618.931 39.2286 618.661 39.0205 618.273 39.0205C617.88 39.0205 617.608 39.2283 617.456 39.6439L616.077 43.3288C616.045 43.4117 616.029 43.5044 616.029 43.6057C616.029 43.7582 616.082 43.8877 616.188 43.9938C616.294 44.0999 616.426 44.1529 616.583 44.1529ZM618.273 40.1844L618.89 42.1304L617.629 42.1237L618.273 40.1844Z" fill="#FDF0F1"/>
<path d="M622.077 44.138C622.4 44.138 622.588 43.9604 622.638 43.6046L623.033 40.8549L623.864 43.6878C623.961 43.9879 624.153 44.138 624.439 44.138C624.61 44.138 624.736 44.1057 624.817 44.041C624.897 43.9765 624.963 43.8587 625.014 43.6878L625.845 40.8549L626.247 43.6046C626.302 43.9604 626.492 44.138 626.815 44.138C626.976 44.138 627.11 44.0836 627.217 43.9752C627.323 43.8667 627.376 43.7271 627.376 43.5562L627.362 43.4454L626.718 39.6219C626.686 39.4514 626.599 39.3094 626.458 39.1962C626.317 39.0831 626.157 39.0264 625.977 39.0264C625.593 39.0264 625.347 39.2133 625.236 39.5873L624.439 42.2262L623.656 39.5873C623.537 39.2133 623.289 39.0264 622.915 39.0264C622.731 39.0264 622.567 39.0841 622.424 39.1996C622.28 39.3151 622.195 39.4557 622.167 39.6219L621.523 43.4454C621.514 43.4686 621.509 43.5055 621.509 43.5562C621.509 43.7224 621.562 43.861 621.669 43.9718C621.775 44.0826 621.911 44.138 622.077 44.138Z" fill="#FDF0F1"/>
<path d="M621.455 49.6748H607.907C607.548 49.6748 607.257 49.9655 607.257 50.324C607.257 50.6826 607.548 50.9736 607.907 50.9736H621.454C621.813 50.9736 622.104 50.6826 622.104 50.324C622.104 49.9655 621.813 49.6748 621.455 49.6748Z" fill="#F5F3F7"/>
<path d="M609.707 57.2404C609.707 57.5989 609.997 57.8896 610.356 57.8896H620.363C620.722 57.8896 621.012 57.5989 621.012 57.2404C621.012 56.8815 620.722 56.5908 620.363 56.5908H610.356C609.997 56.5908 609.707 56.8815 609.707 57.2404Z" fill="#F5F3F7"/>
</g>
<path d="M596.554 117.978H598.696V106H596.554V117.978ZM600.597 117.978H602.664V112.59C602.664 111.52 603.361 110.739 604.357 110.739C605.32 110.739 605.917 111.354 605.917 112.341V117.978H607.926V112.541C607.926 111.478 608.607 110.739 609.603 110.739C610.616 110.739 611.18 111.362 611.18 112.449V117.978H613.247V111.935C613.247 110.175 612.11 108.996 610.375 108.996C609.105 108.996 608.059 109.677 607.636 110.772H607.586C607.262 109.644 606.374 108.996 605.146 108.996C603.983 108.996 603.079 109.627 602.705 110.59H602.664V109.179H600.597V117.978ZM618.178 118.152C618.593 118.152 618.958 118.11 619.199 118.077V116.525C619.058 116.533 618.9 116.558 618.701 116.558C617.945 116.558 617.563 116.284 617.563 115.421V110.772H619.199V109.179H617.563V106.946H615.463V109.179H614.218V110.772H615.463V115.595C615.463 117.405 616.335 118.152 618.178 118.152ZM621.714 107.917C622.361 107.917 622.859 107.402 622.859 106.788C622.859 106.157 622.361 105.651 621.714 105.651C621.066 105.651 620.56 106.157 620.56 106.788C620.56 107.402 621.066 107.917 621.714 107.917ZM620.676 117.978H622.743V109.179H620.676V117.978ZM624.561 117.978H626.628V112.906C626.628 111.627 627.392 110.739 628.562 110.739C629.749 110.739 630.43 111.553 630.43 112.906V117.978H632.497V112.499C632.497 110.374 631.285 108.996 629.392 108.996C628.072 108.996 627.134 109.602 626.678 110.656H626.628V106H624.561V117.978ZM638.058 118.152C640.64 118.152 642.316 116.434 642.316 113.578V113.562C642.316 110.723 640.615 108.996 638.05 108.996C635.493 108.996 633.8 110.739 633.8 113.562V113.578C633.8 116.425 635.468 118.152 638.058 118.152ZM638.066 116.483C636.747 116.483 635.908 115.429 635.908 113.578V113.562C635.908 111.735 636.763 110.673 638.05 110.673C639.361 110.673 640.208 111.727 640.208 113.562V113.578C640.208 115.421 639.37 116.483 638.066 116.483ZM643.645 117.978H645.711V112.873C645.711 111.603 646.467 110.739 647.654 110.739C648.833 110.739 649.414 111.445 649.414 112.698V117.978H651.48V112.283C651.48 110.241 650.376 108.996 648.442 108.996C647.106 108.996 646.209 109.61 645.753 110.557H645.711V109.179H643.645V117.978Z" fill="black"/>
<rect x="1140" y="0.977539" width="88" height="88" rx="44" fill="#FFE4CC"/>
<path d="M1194.27 46.5244C1188.63 46.5244 1184.04 51.112 1184.04 56.751C1184.04 62.3899 1188.63 66.9775 1194.27 66.9775C1199.96 66.9775 1204.58 62.3899 1204.58 56.751C1204.58 51.112 1199.96 46.5244 1194.27 46.5244ZM1197.41 55.5137L1193.97 59.6387C1193.72 59.9344 1193.36 60.1025 1192.98 60.1025C1192.93 60.1025 1192.88 60.0997 1192.83 60.0939C1192.4 60.0438 1192.02 59.7791 1191.83 59.3899L1190.45 56.6399C1190.13 56.0032 1190.39 55.2289 1191.03 54.9105C1191.67 54.592 1192.44 54.8502 1192.76 55.487L1193.25 56.4741L1195.43 53.8632C1195.88 53.3164 1196.7 53.2426 1197.24 53.6981C1197.79 54.1539 1197.86 54.9667 1197.41 55.5137Z" fill="#EB8153"/>
<path d="M1193.71 30.3212L1188.48 24.9123C1188.48 24.9098 1188.48 24.9071 1188.48 24.9045C1187.27 23.6799 1185.6 22.9775 1183.88 22.9775H1167.29C1165.15 22.9775 1163.42 24.7124 1163.42 26.8447V60.2744C1163.42 62.4068 1165.15 64.1416 1167.29 64.1416H1183.82C1182.34 62.0523 1181.46 59.5017 1181.46 56.751C1181.46 49.6904 1187.21 43.9463 1194.27 43.9463C1194.7 43.9463 1195.13 43.9681 1195.56 44.0101V34.8352C1195.56 33.1363 1194.9 31.5335 1193.71 30.3212ZM1177.08 51.7666H1170.21C1169.5 51.7666 1168.92 51.1894 1168.92 50.4775C1168.92 49.7656 1169.5 49.1885 1170.21 49.1885H1177.08C1177.79 49.1885 1178.37 49.7656 1178.37 50.4775C1178.37 51.1894 1177.79 51.7666 1177.08 51.7666ZM1177.08 44.8916H1170.21C1169.5 44.8916 1168.92 44.3144 1168.92 43.6025C1168.92 42.8906 1169.5 42.3135 1170.21 42.3135H1177.08C1177.79 42.3135 1178.37 42.8906 1178.37 43.6025C1178.37 44.3144 1177.79 44.8916 1177.08 44.8916ZM1177.08 38.0166H1170.21C1169.5 38.0166 1168.92 37.4394 1168.92 36.7275C1168.92 36.0156 1169.5 35.4385 1170.21 35.4385H1177.08C1177.79 35.4385 1178.37 36.0156 1178.37 36.7275C1178.37 37.4394 1177.79 38.0166 1177.08 38.0166ZM1185.33 44.8916H1183.96C1183.25 44.8916 1182.67 44.3144 1182.67 43.6025C1182.67 42.8906 1183.25 42.3135 1183.96 42.3135H1185.33C1186.04 42.3135 1186.62 42.8906 1186.62 43.6025C1186.62 44.3144 1186.04 44.8916 1185.33 44.8916ZM1185.33 38.0166H1183.96C1183.25 38.0166 1182.67 37.4394 1182.67 36.7275C1182.67 36.0156 1183.25 35.4385 1183.96 35.4385H1185.33C1186.04 35.4385 1186.62 36.0156 1186.62 36.7275C1186.62 37.4394 1186.04 38.0166 1185.33 38.0166Z" fill="#EB8153"/>
<path d="M1124.42 117.978H1126.56V113.254L1130.76 106H1128.42L1125.52 111.212H1125.46L1122.56 106H1120.22L1124.42 113.254V117.978ZM1132.69 118.127C1133.85 118.127 1134.83 117.546 1135.34 116.625H1135.39V117.978H1137.46V111.926C1137.46 110.158 1136.04 108.996 1133.84 108.996C1131.6 108.996 1130.25 110.167 1130.13 111.727L1130.12 111.827H1132.04L1132.05 111.752C1132.19 111.104 1132.78 110.648 1133.76 110.648C1134.81 110.648 1135.39 111.188 1135.39 112.076V112.682L1133.09 112.823C1130.96 112.956 1129.75 113.894 1129.75 115.454V115.471C1129.75 117.04 1130.93 118.127 1132.69 118.127ZM1131.8 115.388V115.379C1131.8 114.682 1132.36 114.242 1133.38 114.176L1135.39 114.051V114.715C1135.39 115.761 1134.49 116.55 1133.31 116.55C1132.4 116.55 1131.8 116.11 1131.8 115.388ZM1139.22 117.978H1141.28V114.923L1141.98 114.192L1144.76 117.978H1147.14L1143.52 112.964L1147 109.179H1144.61L1141.32 112.831H1141.28V106H1139.22V117.978ZM1150.94 118.152C1152.27 118.152 1153.17 117.538 1153.63 116.6H1153.67V117.978H1155.73V109.179H1153.67V114.275C1153.67 115.554 1152.91 116.409 1151.73 116.409C1150.55 116.409 1149.97 115.703 1149.97 114.458V109.179H1147.9V114.865C1147.9 116.907 1149 118.152 1150.94 118.152ZM1157.44 117.978H1159.5V112.873C1159.5 111.603 1160.26 110.739 1161.45 110.739C1162.62 110.739 1163.21 111.445 1163.21 112.698V117.978H1165.27V112.283C1165.27 110.241 1164.17 108.996 1162.23 108.996C1160.9 108.996 1160 109.61 1159.54 110.557H1159.5V109.179H1157.44V117.978ZM1168.03 107.917C1168.68 107.917 1169.17 107.402 1169.17 106.788C1169.17 106.157 1168.68 105.651 1168.03 105.651C1167.38 105.651 1166.87 106.157 1166.87 106.788C1166.87 107.402 1167.38 107.917 1168.03 107.917ZM1166.99 117.978H1169.06V109.179H1166.99V117.978ZM1172 120.899C1173.83 120.899 1174.86 120.21 1175.53 118.276L1178.69 109.179H1176.52L1174.45 116.218H1174.4L1172.34 109.179H1170.08L1173.24 117.986L1173.12 118.343C1172.85 119.082 1172.41 119.306 1171.62 119.306C1171.33 119.306 1171.09 119.264 1170.93 119.231V120.808C1171.18 120.85 1171.6 120.899 1172 120.899ZM1183.05 120.883H1185.12V116.492H1185.16C1185.66 117.521 1186.66 118.152 1187.92 118.152C1190.12 118.152 1191.54 116.409 1191.54 113.586V113.578C1191.54 110.739 1190.12 108.996 1187.89 108.996C1186.63 108.996 1185.67 109.644 1185.16 110.698H1185.12V109.179H1183.05V120.883ZM1187.28 116.409C1186 116.409 1185.1 115.305 1185.1 113.586V113.578C1185.1 111.852 1186 110.739 1187.28 110.739C1188.6 110.739 1189.43 111.818 1189.43 113.578V113.586C1189.43 115.321 1188.6 116.409 1187.28 116.409ZM1192.86 117.978H1194.93V112.873C1194.93 111.569 1195.64 110.831 1196.81 110.831C1197.16 110.831 1197.47 110.88 1197.65 110.947V109.079C1197.49 109.038 1197.25 108.996 1196.99 108.996C1195.98 108.996 1195.25 109.635 1194.97 110.698H1194.93V109.179H1192.86V117.978ZM1202.27 118.152C1204.85 118.152 1206.53 116.434 1206.53 113.578V113.562C1206.53 110.723 1204.83 108.996 1202.26 108.996C1199.7 108.996 1198.01 110.739 1198.01 113.562V113.578C1198.01 116.425 1199.68 118.152 1202.27 118.152ZM1202.28 116.483C1200.96 116.483 1200.12 115.429 1200.12 113.578V113.562C1200.12 111.735 1200.97 110.673 1202.26 110.673C1203.57 110.673 1204.42 111.727 1204.42 113.562V113.578C1204.42 115.421 1203.58 116.483 1202.28 116.483ZM1208.72 120.899C1210.55 120.899 1211.58 120.21 1212.25 118.276L1215.42 109.179H1213.24L1211.18 116.218H1211.12L1209.06 109.179H1206.8L1209.96 117.986L1209.84 118.343C1209.57 119.082 1209.13 119.306 1208.35 119.306C1208.05 119.306 1207.81 119.264 1207.66 119.231V120.808C1207.91 120.85 1208.32 120.899 1208.72 120.899ZM1219.92 118.152C1222.22 118.152 1223.52 116.791 1223.79 115.438L1223.82 115.346H1221.88L1221.87 115.404C1221.67 115.994 1221 116.542 1219.97 116.542C1218.62 116.542 1217.77 115.628 1217.74 114.084H1223.9V113.42C1223.9 110.764 1222.34 108.996 1219.83 108.996C1217.31 108.996 1215.69 110.822 1215.69 113.595V113.603C1215.69 116.4 1217.29 118.152 1219.92 118.152ZM1219.85 110.615C1220.95 110.615 1221.74 111.312 1221.89 112.707H1217.77C1217.93 111.354 1218.75 110.615 1219.85 110.615ZM1225.33 117.978H1227.4V114.923L1228.09 114.192L1230.87 117.978H1233.26L1229.63 112.964L1233.11 109.179H1230.72L1227.44 112.831H1227.4V106H1225.33V117.978ZM1237.32 118.152C1237.74 118.152 1238.1 118.11 1238.34 118.077V116.525C1238.2 116.533 1238.05 116.558 1237.85 116.558C1237.09 116.558 1236.71 116.284 1236.71 115.421V110.772H1238.34V109.179H1236.71V106.946H1234.61V109.179H1233.36V110.772H1234.61V115.595C1234.61 117.405 1235.48 118.152 1237.32 118.152Z" fill="black"/>
<defs>
<filter id="filter0_b_1593_16331" x="-100" y="-99.0225" width="288" height="288" filterUnits="userSpaceOnUse" color-interpolation-filters="sRGB">
<feFlood flood-opacity="0" result="BackgroundImageFix"/>
<feGaussianBlur in="BackgroundImageFix" stdDeviation="50"/>
<feComposite in2="SourceAlpha" operator="in" result="effect1_backgroundBlur_1593_16331"/>
<feBlend mode="normal" in="SourceGraphic" in2="effect1_backgroundBlur_1593_16331" result="shape"/>
</filter>
<filter id="filter1_b_1593_16331" x="142" y="82.9775" width="288" height="288" filterUnits="userSpaceOnUse" color-interpolation-filters="sRGB">
<feFlood flood-opacity="0" result="BackgroundImageFix"/>
<feGaussianBlur in="BackgroundImageFix" stdDeviation="50"/>
<feComposite in2="SourceAlpha" operator="in" result="effect1_backgroundBlur_1593_16331"/>
<feBlend mode="normal" in="SourceGraphic" in2="effect1_backgroundBlur_1593_16331" result="shape"/>
</filter>
<filter id="filter2_b_1593_16331" x="480" y="-99.0225" width="288" height="288" filterUnits="userSpaceOnUse" color-interpolation-filters="sRGB">
<feFlood flood-opacity="0" result="BackgroundImageFix"/>
<feGaussianBlur in="BackgroundImageFix" stdDeviation="50"/>
<feComposite in2="SourceAlpha" operator="in" result="effect1_backgroundBlur_1593_16331"/>
<feBlend mode="normal" in="SourceGraphic" in2="effect1_backgroundBlur_1593_16331" result="shape"/>
</filter>
<clipPath id="clip0_1593_16331">
<rect width="44" height="44" fill="white" transform="translate(22 22.9775)"/>
</clipPath>
<clipPath id="clip1_1593_16331">
<rect width="44" height="44" fill="white" transform="translate(264 204.978)"/>
</clipPath>
</defs>
</svg>
